<?xml version="1.0" encoding="utf-8"?>
<!-- Generator: Adobe Illustrator 23.0.1, SVG Export Plug-In . SVG Version: 6.00 Build 0)  -->
<svg version="1.1" id="Слой_1" xmlns="http://www.w3.org/2000/svg" xmlns:xlink="http://www.w3.org/1999/xlink" x="0px" y="0px"
	 viewBox="0 0 100 125" style="enable-background:new 0 0 100 125;" xml:space="preserve">
<style type="text/css">
	.st0{fill:#FFFFFF;}
</style>
<path class="st0" d="M83.5,51.2c-0.8-1.1-2.7-2.6-6.7-3.5c-0.2,0-0.3,0-0.5,0c-1.1-1.4-3-2.7-5.5-3.9c0.1-0.4,0.2-0.8,0.2-1.2
	c0-0.1,0-0.2,0-0.2c0,0,0,0,0,0c0,0,0,0,0,0c0-5.4-10-8.3-19.5-8.8c-6.4-2.3-5.9-4.8-5.7-5.9c0.1-0.5,0.3-1.5-0.6-2.1
	c-1-0.7-1.7-0.3-4,1.2c-2.7,1.7-3.9,4.1-3.4,6.9c0,0.2,0,0.6,0.1,1C31,36,26.8,38.9,26.8,42.3c0,0.5,0.1,1,0.3,1.5
	c-2.8,1.3-4.8,2.7-5.9,4.4c0,0-0.1,0-0.1,0c-2.1,0.3-5.3,1.6-6.3,2.8c-0.7,0.7-1,1.7-1,2.6c0.5,16.6,16,29.6,35.2,29.6
	c19,0,34.8-13.4,35.2-29.9C84.2,52.6,84,51.8,83.5,51.2z M20.2,51.5c0,1.4,0.6,2.7,1.6,3.9c0.5,0.6,1.5,0.7,2.1,0.1s0.7-1.5,0.1-2.1
	c-0.6-0.7-0.9-1.4-0.9-2c0-1.9,2.5-3.9,6.6-5.5c0.5-0.2,0.8-0.6,0.9-1c0.1-0.5,0-1-0.3-1.4c-0.4-0.4-0.6-0.8-0.6-1.2
	c0-1.6,3.4-3.8,9.8-5c0.3,0.5,0.7,0.9,1.2,1.5c0.3,0.3,0.7,0.5,1.1,0.5c0.4,0,0.7-0.1,1-0.4c0.6-0.6,0.7-1.5,0.1-2.1
	c-0.6-0.7-1-1.2-1.3-1.7c0,0,0,0,0-0.1c-1.3-2.6-0.9-4.3,1.3-5.7c0.2,2.1,1.8,5,8,7.2c0.1,0,0.3,0.1,0.4,0.1
	c10.7,0.4,16.7,3.6,16.8,5.7c-0.2,0.6-1.7,4.3-13.1,4.5c-0.8,0-1.5,0.7-1.5,1.5c0,0.8,0.7,1.5,1.5,1.5c0,0,0,0,0,0
	c7.7-0.1,11.7-1.8,13.8-3.5c3.7,1.5,5.9,3.5,5.9,5.2c0,0.7-0.3,1.3-0.9,2c-0.5,0.6-0.5,1.6,0.1,2.1c0.3,0.2,0.6,0.4,1,0.4
	c0.4,0,0.8-0.2,1.1-0.5c1.1-1.3,1.7-2.6,1.7-4c0-0.1,0-0.2,0-0.3c2.2,0.7,3.1,1.6,3.3,2c0,0,0.1,0.1,0.1,0.3c0,0.1,0,0.2,0,0.3
	c-0.2,0.1-0.3,0.3-0.4,0.5c-2.4,4.3-14.3,8.8-31.7,8.8c-18,0-30.4-4.8-32-9.4c0-0.1-0.1-0.2-0.1-0.2c0-0.1,0.1-0.2,0.2-0.3
	C17.4,52.7,18.8,51.9,20.2,51.5z M49,80.3c-15.5,0-28.3-9.1-31.5-21.6c5.8,4.4,17.6,7.2,31.5,7.2c13.7,0,25.6-2.8,31.4-7.2
	C77.2,71,64.3,80.3,49,80.3z"/>
</svg>
