<?xml version="1.0" encoding="utf-8"?>
<!-- Generator: Adobe Illustrator 23.0.1, SVG Export Plug-In . SVG Version: 6.00 Build 0)  -->
<svg version="1.1"
	 id="Слой_1" xmlns:cc="http://creativecommons.org/ns#" xmlns:dc="http://purl.org/dc/elements/1.1/" xmlns:inkscape="http://www.inkscape.org/namespaces/inkscape" xmlns:rdf="http://www.w3.org/1999/02/22-rdf-syntax-ns#" xmlns:sodipodi="http://sodipodi.sourceforge.net/DTD/sodipodi-0.dtd" xmlns:svg="http://www.w3.org/2000/svg"
	 xmlns="http://www.w3.org/2000/svg" xmlns:xlink="http://www.w3.org/1999/xlink" x="0px" y="0px" viewBox="0 0 100 125"
	 style="enable-background:new 0 0 100 125;" xml:space="preserve">
<style type="text/css">
	.st0{fill:#FFFFFF;}
</style>
<g transform="translate(-91.214475,-152.15558)">
	<path class="st0" d="M116.9,166.8c-0.7,0-1.2,0.5-1.2,1.2c0,0,0,0.1,0,0.1l8,79.6c0.1,0.6,0.6,1.1,1.2,1.1h32.6
		c0.6,0,1.1-0.5,1.2-1.1l8-79.6c0.1-0.7-0.4-1.2-1.1-1.3c0,0-0.1,0-0.1,0L116.9,166.8L116.9,166.8z M118.2,169.2h46l-1.9,19.2
		c-1,0.6-3.1,1.8-5.6,2.6v-3c0-0.7-0.5-1.2-1.2-1.2h-11.9c-0.7,0-1.2,0.5-1.2,1.2v1c-3.8-2-7.6-2.6-11.1-2.7
		c-4.8,0-8.9,1.1-11.1,1.9L118.2,169.2z M130.7,188.8c3.6,0,7.8,0.7,11.7,3v8.1c0,0.7,0.5,1.2,1.2,1.2h11.9c0.7,0,1.2-0.5,1.2-1.2
		v-6.3c0.2-0.1,0.4-0.1,0.5-0.2c1.9-0.6,3.5-1.4,4.8-2.1l-5.5,55H126l-5.6-55.5C122.1,190.2,126,188.9,130.7,188.8z M144.8,189.3
		h9.5v2.5c-3.2,0.8-6.6,0.8-9.2-1.1c-0.1-0.1-0.2-0.1-0.3-0.2V189.3z M124.6,192.3c-0.7,0-1.2,0.5-1.2,1.2v11.9
		c0,0.7,0.5,1.2,1.2,1.2h11.9c0.7,0,1.2-0.5,1.2-1.2v-11.9c0-0.7-0.5-1.2-1.2-1.2H124.6z M144.8,193.4c3,1.6,6.4,1.5,9.5,0.9v4.5
		h-9.5V193.4z M125.8,194.7h9.5v9.5h-9.5L125.8,194.7L125.8,194.7z M137.2,207.9c-0.7,0-1.2,0.5-1.2,1.2V221c0,0.7,0.5,1.2,1.2,1.2
		H149c0.7,0,1.2-0.5,1.2-1.2v-11.9c0-0.7-0.5-1.2-1.2-1.2H137.2z M138.4,210.3h9.5v9.5h-9.5V210.3z"/>
</g>
</svg>
