<?xml version="1.0" encoding="utf-8"?>
<!-- Generator: Adobe Illustrator 23.0.1, SVG Export Plug-In . SVG Version: 6.00 Build 0)  -->
<svg version="1.1" id="Слой_1" xmlns="http://www.w3.org/2000/svg" xmlns:xlink="http://www.w3.org/1999/xlink" x="0px" y="0px"
	 viewBox="0 0 64 80" style="enable-background:new 0 0 64 80;" xml:space="preserve">
<style type="text/css">
	.st0{fill:#FFFFFF;}
</style>
<g>
	<path class="st0" d="M62,26.5c0,4.2-2.8,7.5-6.2,7.5H46c-0.5,0-1,0.5-1,1s0.5,1,1,1h9.8c1.3,0,2.5-0.4,3.6-1
		c1.4-0.8,2.6-2.1,3.4-3.6c0.1-0.1,0.1-0.3,0.2-0.4c0.5-1.1,0.9-2.4,1-3.8c0-0.1,0-0.1,0-0.2v-0.5c0-0.5-0.5-1-1-1
		c-0.1,0-0.1,0-0.2,0C62.4,25.6,62,26,62,26.5z"/>
	<path class="st0" d="M63,19.7c0.6-1.3,1-2.8,1-4.4v-0.1c0-1.5-0.4-3-1-4.2c-0.8-1.7-2.2-3.1-3.8-4c-1.1-0.6-2.4-1-3.8-1H29.3
		c-4.6,0-8.3,4.1-8.3,9.2v0.1c0,0.4,0,0.8,0.1,1.3c0,0.1-0.1,0.2-0.1,0.4v8c0,0.5,0.5,1,1,1s1-0.5,1-1v-3.5c1.5,2.1,3.8,3.5,6.3,3.5
		H42h13.5C58.6,25,61.5,22.8,63,19.7z M29.3,23c-3.4,0-6.3-3.5-6.3-7.7v-0.1c0-4,2.8-7.2,6.3-7.2H42h13.5C59,8,62,11.3,62,15.2v0.1
		c0,4-3.1,7.7-6.5,7.7H42H29.3z"/>
</g>
<path class="st0" d="M32,10c-0.6,0-1,0.4-1,1v9c0,0.6,0.4,1,1,1c0.6,0,1-0.4,1-1v-9C33,10.4,32.6,10,32,10z"/>
<path class="st0" d="M39,10c-0.6,0-1,0.4-1,1v9c0,0.6,0.4,1,1,1s1-0.4,1-1v-9C40,10.4,39.6,10,39,10z"/>
<path class="st0" d="M46,10c-0.6,0-1,0.4-1,1v9c0,0.6,0.4,1,1,1s1-0.4,1-1v-9C47,10.4,46.6,10,46,10z"/>
<path class="st0" d="M53,10c-0.6,0-1,0.4-1,1v9c0,0.6,0.4,1,1,1s1-0.4,1-1v-9C54,10.4,53.6,10,53,10z"/>
<g>
	<path class="st0" d="M42.9,50.4c0-0.1,0.1-0.2,0.1-0.4v-0.9V37c0,0,0,0,0-0.1s0-0.2,0-0.3v-0.1c0-3.4-1.6-6.1-4.1-7.5
		c-1.2-0.6-2.5-1-4-1H8.7C4.5,28,0,31,0,36.5v0.1c0,0.1,0,0.2,0,0.3c0,0,0,0,0,0.1v12.1V50c0,0.1,0,0.3,0.1,0.4l0,0
		C0.7,55.1,4.5,59,8.7,59h13.8h12.3C38.9,59,42.4,55.2,42.9,50.4z M2,36.5C2,32.3,5.4,30,8.7,30h13.8h12.3c3.6,0,6.2,2.7,6.2,6.5
		v0.1c0,3.9-2.6,8.3-6.2,8.3H22.5H8.7C5.4,45,2,40.8,2,36.7V36.5z M8.7,57C5.2,57,2,53.1,2,49.1V43c1.6,2.3,4.1,4,6.7,4h13.8h12.3
		c2.6,0,4.7-1.6,6.2-3.7v5.8c0,4.2-2.9,7.9-6.2,7.9H22.5H8.7z"/>
</g>
<path class="st0" d="M12,42c0.6,0,1-0.4,1-1v-9c0-0.6-0.4-1-1-1s-1,0.4-1,1v9C11,41.6,11.4,42,12,42z"/>
<path class="st0" d="M19,42c0.6,0,1-0.4,1-1v-9c0-0.6-0.4-1-1-1s-1,0.4-1,1v9C18,41.6,18.4,42,19,42z"/>
<path class="st0" d="M26,42c0.6,0,1-0.4,1-1v-9c0-0.6-0.4-1-1-1s-1,0.4-1,1v9C25,41.6,25.4,42,26,42z"/>
<path class="st0" d="M33,42c0.6,0,1-0.4,1-1v-9c0-0.6-0.4-1-1-1s-1,0.4-1,1v9C32,41.6,32.4,42,33,42z"/>
</svg>
