<?xml version="1.0" encoding="utf-8"?>
<!-- Generator: Adobe Illustrator 23.0.1, SVG Export Plug-In . SVG Version: 6.00 Build 0)  -->
<svg version="1.1" id="Слой_1" xmlns="http://www.w3.org/2000/svg" xmlns:xlink="http://www.w3.org/1999/xlink" x="0px" y="0px"
	 viewBox="0 0 100 125" style="enable-background:new 0 0 100 125;" xml:space="preserve">
<style type="text/css">
	.st0{fill:#FFFFFF;}
</style>
<path class="st0" d="M82.4,53.4c0-0.6-0.4-1-1-1h-4.3c-2.6-12.2-13.5-21-26-21c-5,0-9.7,1.4-13.8,3.9l-9.8-24.6
	c-0.2-0.5-0.8-0.8-1.3-0.6c-0.5,0.2-0.8,0.8-0.6,1.3l10,25c-0.2,0.2-0.5,0.4-0.7,0.5L19.2,18.2c-0.4-0.4-1-0.5-1.4-0.1
	c-0.4,0.4-0.5,1-0.1,1.4l15.8,18.8c-4.1,3.6-7,8.5-8.2,14.1h-4.3c-0.6,0-1,0.4-1,1c0,14,9.3,25.9,22,29.9c-1.1,1.7-1.7,3.7-1.7,5.8
	c0,0.6,0.4,1,1,1h19.8c0.6,0,1-0.4,1-1c0-2.1-0.6-4-1.7-5.8C73.2,79.3,82.4,67.4,82.4,53.4z M36.5,38.3l3.9,9.7
	c0.2,0.4,0.5,0.6,0.9,0.6c0.1,0,0.2,0,0.4-0.1c0.5-0.2,0.8-0.8,0.6-1.3l-4-10.2c3.8-2.4,8.3-3.8,13-3.8c11.4,0,21.3,8,23.9,19H27.3
	C28.6,46.6,32,41.7,36.5,38.3z M60,88H42.3c0.2-1.5,0.7-3,1.7-4.2c2.3,0.5,4.7,0.8,7.2,0.8c2.5,0,4.9-0.3,7.2-0.8
	C59.3,85,59.9,86.5,60,88z M51.2,82.6c-15.8,0-28.7-12.6-29.2-28.3h58.5C79.9,70,67,82.6,51.2,82.6z"/>
</svg>
