<?xml version="1.0" encoding="utf-8"?>
<!-- Generator: Adobe Illustrator 23.0.1, SVG Export Plug-In . SVG Version: 6.00 Build 0)  -->
<svg version="1.1" id="Слой_1" xmlns="http://www.w3.org/2000/svg" xmlns:xlink="http://www.w3.org/1999/xlink" x="0px" y="0px"
	 viewBox="0 0 100 125" style="enable-background:new 0 0 100 125;" xml:space="preserve">
<style type="text/css">
	.st0{fill:#FFFFFF;}
</style>
<path class="st0" d="M12.5,77.9v2.3H11c-0.6,0-1,0.4-1,1V89c0,0.6,0.4,1,1,1h78c0.6,0,1-0.4,1-1v-7.8c0-0.6-0.4-1-1-1h-1.5v-2.3
	c0-20-15.7-36.4-35.5-37.5c1.8-0.8,3.1-2.6,3.1-4.8c0-2.8-2.3-5.2-5.2-5.2s-5.2,2.3-5.2,5.2c0,2.1,1.3,4,3.1,4.8
	C28.2,41.5,12.5,57.9,12.5,77.9z M88,88H12v-5.8h76V88z M46.8,35.7c0-1.7,1.4-3.2,3.2-3.2s3.2,1.4,3.2,3.2s-1.4,3.2-3.2,3.2
	S46.8,37.4,46.8,35.7z M50,42.4c19.6,0,35.5,15.9,35.5,35.5v2.3h-71v-2.3C14.5,58.3,30.4,42.4,50,42.4z"/>
<path class="st0" d="M56.9,51.1c9.3,1.7,16.8,8.6,19.3,17.7c0.1,0.4,0.5,0.7,1,0.7c0.1,0,0.2,0,0.3,0c0.5-0.1,0.8-0.7,0.7-1.2
	c-2.7-9.8-10.9-17.3-20.9-19.2c-0.5-0.1-1.1,0.3-1.2,0.8C56,50.5,56.3,51,56.9,51.1z"/>
<path class="st0" d="M45.4,17.1c-2.5,0-4.5,2-4.5,4.5c0,2.5,2,4.6,4.5,4.6c0.6,0,1-0.4,1-1s-0.4-1-1-1c-1.4,0-2.5-1.1-2.5-2.5
	c0-1.4,1.1-2.5,2.5-2.5c2.5,0,4.5-2,4.5-4.6s-2-4.5-4.5-4.5c-0.6,0-1,0.4-1,1s0.4,1,1,1c1.4,0,2.5,1.1,2.5,2.6S46.8,17.1,45.4,17.1z
	"/>
<path class="st0" d="M54.5,17.1c-2.5,0-4.5,2-4.5,4.5c0,2.5,2,4.6,4.5,4.6c0.6,0,1-0.4,1-1s-0.4-1-1-1c-1.4,0-2.5-1.1-2.5-2.5
	c0-1.4,1.1-2.5,2.5-2.5c2.5,0,4.5-2,4.5-4.6S57,10,54.5,10c-0.6,0-1,0.4-1,1s0.4,1,1,1c1.4,0,2.5,1.1,2.5,2.6S55.9,17.1,54.5,17.1z"
	/>
</svg>
