<?xml version="1.0" encoding="utf-8"?>
<!-- Generator: Adobe Illustrator 23.0.1, SVG Export Plug-In . SVG Version: 6.00 Build 0)  -->
<svg version="1.1" id="Слой_1" xmlns="http://www.w3.org/2000/svg" xmlns:xlink="http://www.w3.org/1999/xlink" x="0px" y="0px"
	 viewBox="0 0 100 125" style="enable-background:new 0 0 100 125;" xml:space="preserve">
<style type="text/css">
	.st0{fill:#FFFFFF;}
</style>
<path class="st0" d="M14.6,64.7c-0.1,0.3-0.1,0.6-0.1,0.9c0.5,4.2,2.9,8.5,7.1,12.8c4.2,4.2,8.4,6.6,12.7,7.1c0.1,0,0.2,0,0.3,0
	c0.2,0,0.4,0,0.7-0.1c0.2,0.3,0.4,0.5,0.6,0.7c3.3,2.6,8.1,4,14.1,4c5.9,0,10.6-1.3,14-4c0.3-0.2,0.5-0.5,0.6-0.7
	c0.2,0.1,0.4,0.1,0.6,0.1c0.1,0,0.2,0,0.3,0c4.2-0.5,8.5-2.9,12.8-7.1c4.2-4.2,6.6-8.4,7.1-12.7c0-0.3,0-0.7-0.1-1
	c0.3-0.2,0.5-0.3,0.7-0.6c2.6-3.3,4-8.1,4-14.1c0-5.9-1.3-10.6-4-14c-0.2-0.3-0.5-0.5-0.7-0.6c0.1-0.3,0.1-0.6,0.1-0.9
	c-0.5-4.2-2.9-8.5-7.1-12.8c-4.2-4.2-8.4-6.6-12.7-7.1c-0.3,0-0.7,0-1,0.1c-0.2-0.3-0.4-0.5-0.6-0.7c-3.3-2.6-8.1-4-14.1-4
	c-5.9,0-10.6,1.3-14,4c-0.3,0.2-0.5,0.5-0.6,0.7c-0.3-0.1-0.6-0.1-0.9-0.1c-4.2,0.5-8.5,2.9-12.8,7.1c-4.2,4.2-6.6,8.4-7.1,12.7
	c0,0.3,0,0.7,0.1,1c-0.3,0.2-0.5,0.4-0.7,0.6c-2.6,3.3-4,8.1-4,14.1c0,5.9,1.3,10.6,4,14C14.1,64.3,14.4,64.5,14.6,64.7z M48.2,51.9
	L37.1,78.6c-1.6-0.3-5.2-1.1-9.8-5.8c-3.3-3.3-5.3-6.7-5.8-9.9L48.2,51.9z M50,52.6l11.1,26.7c-1.3,1-4.5,2.9-11,2.9
	c-4.7,0-8.4-1-11.1-2.9L50,52.6z M51.9,51.8l26.8,11.1c-0.3,1.6-1.1,5.2-5.8,9.8c-3.3,3.3-6.7,5.3-9.9,5.8L51.9,51.8z M52.6,50
	l26.7-11.1c1,1.3,2.9,4.5,2.9,11c0,4.7-1,8.4-2.9,11.1L52.6,50z M51.8,48.1l11.1-26.8c1.6,0.3,5.2,1.1,9.8,5.8
	c3.3,3.3,5.3,6.7,5.8,9.9L51.8,48.1z M50,47.4L38.9,20.6c1.3-1,4.5-2.9,11-2.9c4.7,0,8.4,1,11.1,2.9L50,47.4z M48.1,48.2L21.4,37.1
	c0.3-1.6,1.1-5.2,5.8-9.8c3.3-3.3,6.7-5.3,9.9-5.8L48.1,48.2z M47.4,50L20.6,61.1c-1-1.3-2.9-4.5-2.9-11c0-4.7,1-8.4,2.9-11.1
	L47.4,50z M34.7,83.5C30.9,83,27,80.8,23.1,77c-3.9-3.9-6.1-7.9-6.6-11.6c0-0.2,0.1-0.4,0.3-0.5c0,0,0,0,0,0l2.7-1.1
	c0.7,3.5,2.8,7,6.3,10.5c3.5,3.5,6.9,5.5,10.5,6.2l-1.1,2.6c0,0,0,0.1,0,0.1C35.1,83.4,34.9,83.5,34.7,83.5z M62.8,84.5
	c-3,2.4-7.3,3.5-12.8,3.5c-5.5,0-9.9-1.2-12.8-3.5c-0.2-0.1-0.2-0.3-0.2-0.6c0,0,0,0,0,0l1.1-2.7c3,2,7,3,11.9,3c4.9,0,8.8-1,11.8-3
	l1.1,2.6c0,0,0,0.1,0.1,0.1C63.1,84.2,63,84.4,62.8,84.5z M77,76.9c-3.9,3.9-7.9,6.1-11.6,6.6c-0.2,0-0.4-0.1-0.5-0.3c0,0,0,0,0,0
	l-1.1-2.7c3.5-0.7,7-2.8,10.5-6.3c3.5-3.5,5.5-6.9,6.2-10.5l2.6,1.1c0,0,0.1,0,0.1,0c0.2,0.1,0.3,0.3,0.3,0.5
	C83,69.1,80.8,73,77,76.9z M88.1,49.9c0,5.5-1.2,9.9-3.5,12.8c-0.1,0.2-0.3,0.2-0.6,0.2c0,0,0,0,0,0l-2.7-1.1c2-3,3-7,3-11.9
	c0-4.9-1-8.8-3-11.8l2.6-1.1c0,0,0.1,0,0.1-0.1c0.2-0.1,0.4,0,0.6,0.2C86.9,40.2,88.1,44.5,88.1,49.9z M65.3,16.5
	C69.1,17,73,19.2,76.9,23c3.9,3.9,6.1,7.9,6.6,11.6c0,0.2-0.1,0.4-0.3,0.5c0,0,0,0,0,0l-2.7,1.1c-0.7-3.5-2.8-7-6.3-10.5
	c-3.5-3.5-6.9-5.5-10.5-6.2l1.1-2.6c0,0,0-0.1,0-0.1C64.9,16.6,65.1,16.5,65.3,16.5z M37.2,15.5c3-2.4,7.3-3.5,12.8-3.5
	c5.5,0,9.9,1.2,12.8,3.5c0.2,0.1,0.2,0.3,0.2,0.6c0,0,0,0,0,0l-1.1,2.7c-3-2-7-3-11.9-3c-4.9,0-8.8,1-11.8,3L37,16.2
	c0,0,0-0.1-0.1-0.1C36.9,15.8,37,15.6,37.2,15.5z M23,23.1c3.9-3.9,7.9-6.1,11.6-6.6c0.2,0,0.4,0.1,0.5,0.3c0,0,0,0,0,0l1.1,2.7
	c-3.5,0.7-7,2.8-10.5,6.3c-3.5,3.5-5.5,6.9-6.2,10.5l-2.6-1.1c0,0-0.1,0-0.1,0c-0.2-0.1-0.3-0.3-0.3-0.5C17,30.9,19.2,27,23,23.1z
	 M15.5,37.2c0.1-0.1,0.3-0.2,0.4-0.2c0.1,0,0.1,0,0.2,0c0,0,0,0,0,0l2.7,1.1c-2,3-3,7-3,11.9c0,4.9,1,8.8,3,11.8L16.2,63
	c0,0-0.1,0-0.1,0.1c-0.2,0.1-0.4,0-0.6-0.2c-2.4-3-3.5-7.3-3.5-12.8C11.9,44.6,13.2,40.2,15.5,37.2z"/>
<path class="st0" d="M45.5,26c0,2.4,1.9,4.3,4.3,4.3c2.4,0,4.3-1.9,4.3-4.3s-1.9-4.3-4.3-4.3C47.5,21.6,45.5,23.6,45.5,26z M52.2,26
	c0,1.3-1.1,2.3-2.3,2.3s-2.3-1.1-2.3-2.3s1.1-2.3,2.3-2.3S52.2,24.7,52.2,26z"/>
<path class="st0" d="M32.9,37.5c1.1,0,2.2-0.4,3.1-1.3c1.7-1.7,1.7-4.4,0-6.1c-1.7-1.7-4.4-1.7-6.1,0c-1.7,1.7-1.7,4.4,0,6.1
	C30.7,37,31.8,37.5,32.9,37.5z M31.3,31.5c0.5-0.5,1.1-0.7,1.7-0.7s1.2,0.2,1.7,0.7c0.9,0.9,0.9,2.4,0,3.3c-0.9,0.9-2.4,0.9-3.3,0
	C30.4,33.9,30.4,32.4,31.3,31.5z"/>
<path class="st0" d="M26,54.5c2.4,0,4.3-1.9,4.3-4.3c0-2.4-1.9-4.3-4.3-4.3s-4.3,1.9-4.3,4.3C21.6,52.5,23.6,54.5,26,54.5z M26,47.8
	c1.3,0,2.3,1.1,2.3,2.3s-1.1,2.3-2.3,2.3s-2.3-1.1-2.3-2.3S24.7,47.8,26,47.8z"/>
<path class="st0" d="M33.1,71.4c1.1,0,2.2-0.4,3.1-1.3c1.7-1.7,1.7-4.4,0-6.1s-4.4-1.7-6.1,0s-1.7,4.4,0,6.1
	C30.9,71,32,71.4,33.1,71.4z M31.5,65.4c0.9-0.9,2.4-0.9,3.3,0c0.9,0.9,0.9,2.4,0,3.3c-0.9,0.9-2.4,0.9-3.3,0
	C30.5,67.8,30.5,66.3,31.5,65.4z"/>
<path class="st0" d="M54.5,74c0-2.4-1.9-4.3-4.3-4.3c-2.4,0-4.3,1.9-4.3,4.3c0,2.4,1.9,4.3,4.3,4.3C52.5,78.4,54.5,76.4,54.5,74z
	 M47.8,74c0-1.3,1.1-2.3,2.3-2.3s2.3,1.1,2.3,2.3s-1.1,2.3-2.3,2.3S47.8,75.3,47.8,74z"/>
<path class="st0" d="M64,63.8c-1.7,1.7-1.7,4.4,0,6.1c0.8,0.8,2,1.3,3.1,1.3c1.1,0,2.2-0.4,3.1-1.3c1.7-1.7,1.7-4.4,0-6.1
	C68.5,62.1,65.7,62.1,64,63.8z M68.7,68.5c-0.9,0.9-2.4,0.9-3.3,0c-0.9-0.9-0.9-2.4,0-3.3c0.9-0.9,2.4-0.9,3.3,0
	C69.6,66.1,69.6,67.6,68.7,68.5z"/>
<path class="st0" d="M74,45.5c-2.4,0-4.3,1.9-4.3,4.3c0,2.4,1.9,4.3,4.3,4.3c2.4,0,4.3-1.9,4.3-4.3C78.4,47.5,76.4,45.5,74,45.5z
	 M74,52.2c-1.3,0-2.3-1.1-2.3-2.3s1.1-2.3,2.3-2.3s2.3,1.1,2.3,2.3S75.3,52.2,74,52.2z"/>
<path class="st0" d="M63.8,29.9c-1.7,1.7-1.7,4.4,0,6.1c0.8,0.8,2,1.3,3.1,1.3s2.2-0.4,3.1-1.3c1.7-1.7,1.7-4.4,0-6.1
	C68.3,28.2,65.5,28.2,63.8,29.9z M68.5,34.6c-0.9,0.9-2.4,0.9-3.3,0c-0.9-0.9-0.9-2.4,0-3.3c0.5-0.5,1.1-0.7,1.7-0.7
	s1.2,0.2,1.7,0.7C69.5,32.2,69.5,33.7,68.5,34.6z"/>
</svg>
