<?xml version="1.0" encoding="utf-8"?>
<!-- Generator: Adobe Illustrator 23.0.1, SVG Export Plug-In . SVG Version: 6.00 Build 0)  -->
<svg version="1.1" id="Слой_1" xmlns="http://www.w3.org/2000/svg" xmlns:xlink="http://www.w3.org/1999/xlink" x="0px" y="0px"
	 viewBox="0 0 100 125" style="enable-background:new 0 0 100 125;" xml:space="preserve">
<style type="text/css">
	.st0{fill:#FFFFFF;}
</style>
<g>
	<path class="st0" d="M77.4,68.8C77.1,68.8,77.1,68.8,77.4,68.8c-1.1,0-1.8-1.1-1.8-2.1l1.4-11.3c-0.4-0.4-0.7-0.7-0.7-1.4
		c0-1.1,0.7-1.8,1.8-1.8h1.1c0.4,0,1.1,0.4,1.4,0.7c0.4,0.4,0.4,1.1,0.4,1.4l-1.8,13C78.8,68.5,78.1,68.8,77.4,68.8z"/>
	<path class="st0" d="M73.6,97c-0.4,0-0.7,0-0.7-0.4c-13.7-7-28.5-7-42.2,0c-0.7,0.4-1.1,0.4-1.8,0c-0.4-0.4-0.7-0.7-1.1-1.4
		l-2.5-19.7c0-1.1,0.7-1.8,1.4-2.1c1.1,0,1.8,0.7,2.1,1.4l2.5,17.6c13.4-6.3,27.8-6.3,40.8,0l3.5-25.7c0-1.1,1.1-1.8,2.1-1.4
		c1.1,0,1.8,1.1,1.4,2.1l-3.9,27.8c0,0.7-0.4,1.1-1.1,1.4C73.9,97,73.9,97,73.6,97z"/>
	<path class="st0" d="M27.1,76.9c-0.7,0-1.8-0.7-1.8-1.4l-2.8-21.1c0-0.4,0-1.1,0.4-1.4s0.7-0.7,1.4-0.7h53.8c1.1,0,1.8,0.7,1.8,1.8
		s-0.7,1.8-1.8,1.8H26.1l2.8,19C28.9,75.9,28.2,76.9,27.1,76.9L27.1,76.9z"/>
	<path class="st0" d="M35.2,55.8c-0.7,0-1.4-0.4-1.8-1.1l-6-16.9c-0.4-0.7,0-1.8,1.1-2.1l6.3-2.5c0.4,0,1.1,0,1.4,0
		c0.4,0.4,0.7,0.7,1.1,1.1l7,19c0.4,1.1,0,1.8-1.1,2.1s-1.8,0-2.1-1.1l-6.7-17.2l-3.2,1.1l5.3,15.1c0.4,1.1,0,1.8-1.1,2.1
		C35.6,55.8,35.2,55.8,35.2,55.8z"/>
	<path class="st0" d="M31,38.6c-0.7,0-1.4-0.7-1.8-1.4l-6-16.5c0-0.4,0-1.1,0-1.4s0.7-0.7,1.1-1.1l6.3-2.1c1.1-0.4,1.8,0,2.1,1.1
		l7,19c0.4,1.1,0,1.8-1.1,2.1c-0.7,0.4-1.8,0-2.1-1.1l-6.3-17.2L27.1,21l5.3,15.1c0.4,1.1,0,1.8-0.7,2.1C31.4,38.6,31,38.6,31,38.6z
		"/>
	<path class="st0" d="M57.4,34H57c-1.1-0.4-1.4-1.1-1.4-2.1L59.1,14c0-0.4,0.4-0.7,0.7-1.1s1.1-0.4,1.8-0.4l6.7,1.4
		c1.1,0.4,1.4,1.1,1.4,2.1l-2.1,10.6c-0.4,1.1-1.1,1.4-2.1,1.4c-1.1-0.4-1.4-1.1-1.4-2.1l1.8-8.8l-3.2-0.7l-3.2,16.2
		C58.8,33.7,58.1,34,57.4,34z"/>
	<path class="st0" d="M27.8,55.8c-0.7,0-1.4-0.4-1.8-1.1l-8.8-24.6c0-0.4,0-1.1,0-1.4s0.7-0.7,1.1-1.1l6.3-2.5
		c1.1-0.4,1.8,0,2.1,1.1L36.6,53c0.4,1.1,0,1.8-1.1,2.1s-1.8,0-2.1-1.1l-9.1-24.6l-3.2,1.1l8.1,22.9c0.4,1.1,0,1.8-1.1,2.1
		C28.2,55.8,28.2,55.8,27.8,55.8z"/>
	<path class="st0" d="M51.8,55.8c-0.7,0-1.4-0.7-1.8-1.4l-6.3-27.1L40.5,28l6,25.7c0.4,1.1-0.4,1.8-1.4,2.1s-1.8-0.4-2.1-1.4
		L36.6,27c0-0.4,0-1.1,0.4-1.4c0.4-0.4,0.7-0.7,1.1-0.7l6.7-1.4c0.7-0.4,1.8,0.4,2.1,1.4l6.7,28.8c0.4,1.1-0.4,1.8-1.4,2.1
		C51.8,55.8,51.8,55.8,51.8,55.8z"/>
	<path class="st0" d="M66.5,55.8h-0.4c-1.1-0.4-1.4-1.1-1.4-2.1l6-25.7l-3.2-0.7l-6.3,27.1c-0.4,1.1-1.1,1.4-2.1,1.4
		c-1.1-0.4-1.4-1.1-1.4-2.1l6.7-28.8c0.4-1.1,1.1-1.4,2.1-1.4l6.7,1.4c0.4,0,0.7,0.4,1.1,0.7c0.4,0.4,0.4,1.1,0.4,1.4l-6.3,27.4
		C67.9,55.1,67.2,55.8,66.5,55.8z"/>
	<path class="st0" d="M77.8,55.8h-0.4c-1.1-0.4-1.4-1.1-1.4-2.1l2.8-12.3l-3.2-0.7l-3.2,13.7c-0.4,1.1-1.1,1.4-2.1,1.4
		c-1.1-0.4-1.4-1.1-1.4-2.1l3.5-15.5c0.4-1.1,1.4-1.8,2.1-1.4l6.7,1.4c1.1,0.4,1.4,1.1,1.4,2.1l-3.2,14.1
		C79.2,55.1,78.5,55.8,77.8,55.8z"/>
	<path class="st0" d="M58.8,55.5c-1.1,0-1.8-0.7-1.8-1.8l-2.1-34.1l-3.5,0.4l2.1,33.4c0,1.1-0.7,1.8-1.8,1.8c-1.1,0-1.8-0.7-1.8-1.8
		l-2.5-35.2c0-0.4,0-1.1,0.4-1.4c0.4-0.4,0.7-0.7,1.1-0.7l7.4,0c0.7,0,1.8,0.7,1.8,1.8l2.5,35.9C60.6,54.8,59.8,55.5,58.8,55.5
		L58.8,55.5z"/>
	<g>
		<path class="st0" d="M77.4,68.8H26.1c-1.1,0-1.8-0.7-1.8-1.8c0-1.1,0.7-1.8,1.8-1.8h51.4c1.1,0,1.8,0.7,1.8,1.8
			C79.2,68.1,78.1,68.8,77.4,68.8z"/>
		<path class="st0" d="M76.4,76.2H27.1c-1.1,0-1.8-0.7-1.8-1.8c0-1.1,0.7-1.8,1.8-1.8h49.2c1.1,0,1.8,0.7,1.8,1.8
			C78.1,75.5,77.4,76.2,76.4,76.2z"/>
	</g>
</g>
</svg>
