<?xml version="1.0" encoding="utf-8"?>
<!-- Generator: Adobe Illustrator 23.0.1, SVG Export Plug-In . SVG Version: 6.00 Build 0)  -->
<svg version="1.1" id="Слой_1" xmlns="http://www.w3.org/2000/svg" xmlns:xlink="http://www.w3.org/1999/xlink" x="0px" y="0px"
	 viewBox="0 0 48 60" style="enable-background:new 0 0 48 60;" xml:space="preserve">
<style type="text/css">
	.st0{fill:#FFFFFF;}
</style>
<title>Ice Coffee</title>
<g>
	<path class="st0" d="M37,14h-2.1c-0.5-3.4-3.4-6-6.9-6h-1.6L27,2.1l-2-0.2L24.4,8H20c-3.5,0-6.4,2.6-6.9,6H11c-0.6,0-1,0.4-1,1v6
		c0,0.6,0.4,1,1,1h2.1l1.8,22.2c0.1,1,1,1.8,2,1.8h14.2c1,0,1.9-0.8,2-1.8L34.9,22H37c0.6,0,1-0.4,1-1v-6C38,14.4,37.6,14,37,14z
		 M28,10c2.4,0,4.4,1.7,4.9,4h-7.1l0.4-4H28z M20,10h4.2l-0.4,4h-8.7C15.6,11.7,17.6,10,20,10z M12,16h11.6l-0.4,4H12V16z M23.1,22
		l-1,10h-6.2l-0.8-10H23.1z M31.1,44H16.9l-0.8-10h15.8L31.1,44z M32.1,32h-8l1-10h7.8L32.1,32z M36,20H25.3l0.4-4H36V20z"/>
</g>
</svg>
