<?xml version="1.0" encoding="utf-8"?>
<!-- Generator: Adobe Illustrator 23.0.1, SVG Export Plug-In . SVG Version: 6.00 Build 0)  -->
<svg version="1.1" id="Слой_1" xmlns="http://www.w3.org/2000/svg" xmlns:xlink="http://www.w3.org/1999/xlink" x="0px" y="0px"
	 viewBox="0 0 100 125" style="enable-background:new 0 0 100 125;" xml:space="preserve">
<style type="text/css">
	.st0{fill:#FFFFFF;}
</style>
<path class="st0" d="M90.5,37.3V20c0-5.6-4.6-10.2-10.2-10.2H63c-5.6,0-10.2,4.6-10.2,10.2v17.3c0,5.6,4.6,10.2,10.2,10.2h17.3
	C85.9,47.5,90.5,43,90.5,37.3z M54.8,37.3V20c0-2,0.7-3.9,1.9-5.3l1.9,1.9c0.4,0.4,1,0.4,1.4,0s0.4-1,0-1.4l-1.9-1.9
	c1.4-1,3-1.6,4.8-1.6h9.1v1.9c0,0.6,0.4,1,1,1s1-0.4,1-1v-1.9h6.2c4.5,0,8.2,3.7,8.2,8.2v5.2c0,0,0,0,0,0h-2.9c-0.6,0-1,0.4-1,1
	s0.4,1,1,1h2.9c0,0,0,0,0,0v10.1c0,4.5-3.7,8.2-8.2,8.2h-1v-2.4c0-0.6-0.4-1-1-1c-0.6,0-1,0.4-1,1v2.4H63
	C58.5,45.5,54.8,41.9,54.8,37.3z"/>
<path class="st0" d="M80.1,37.1c4.6-4.6,4.6-12.2,0-16.8c-2.3-2.3-5.4-3.5-8.4-3.5c-1.3,0-2.7,0.2-3.9,0.7c0-0.1-0.1-0.1-0.1-0.2
	l-2.1-2.1c-0.2-0.2-0.5-0.3-0.7-0.3c-0.3,0-0.5,0.1-0.7,0.3c-0.4,0.4-0.4,1,0,1.4l1.7,1.7c-0.9,0.5-1.8,1.2-2.6,1.9
	c-2.6,2.6-3.7,6-3.4,9.4h-1.9c-0.6,0-1,0.4-1,1s0.4,1,1,1h2.3c0.5,2,1.5,3.9,3.1,5.4c0.4,0.4,0.9,0.8,1.4,1.2l-1.6,1.6
	c-0.4,0.4-0.4,1,0,1.4s1,0.4,1.4,0l1.9-1.9C70.9,41.5,76.4,40.8,80.1,37.1z M64.7,21.7c3.9-3.9,10.1-3.9,14,0c3.9,3.9,3.9,10.1,0,14
	c-1.9,1.9-4.5,2.9-7,2.9s-5.1-1-7-2.9C60.8,31.8,60.8,25.5,64.7,21.7z"/>
<path class="st0" d="M77.7,15.9h2.9c0.6,0,1-0.4,1-1s-0.4-1-1-1h-2.9c-0.6,0-1,0.4-1,1S77.2,15.9,77.7,15.9z"/>
<path class="st0" d="M73.1,42h-2.9c-0.6,0-1,0.4-1,1s0.4,1,1,1h2.9c0.6,0,1-0.4,1-1S73.7,42,73.1,42z"/>
<path class="st0" d="M86,35.1c0.6,0,1-0.4,1-1v-2.9c0-0.6-0.4-1-1-1c-0.6,0-1,0.4-1,1v2.9C85,34.7,85.4,35.1,86,35.1z"/>
<path class="st0" d="M58.6,22.5c0.4,0.4,1,0.4,1.4,0s0.4-1,0-1.4L58,19c-0.2-0.2-0.5-0.3-0.7-0.3s-0.5,0.1-0.7,0.3
	c-0.4,0.4-0.4,1,0,1.4L58.6,22.5z"/>
<path class="st0" d="M84.8,21.5c0.4,0.4,1,0.4,1.4,0c0.4-0.4,0.4-1,0-1.4L84.1,18c-0.2-0.2-0.5-0.3-0.7-0.3c-0.3,0-0.5,0.1-0.7,0.3
	c-0.4,0.4-0.4,1,0,1.4L84.8,21.5z"/>
<path class="st0" d="M59.4,36.4c-0.3,0-0.5,0.1-0.7,0.3l-2.1,2.1c-0.4,0.4-0.4,1,0,1.4s1,0.4,1.4,0l2.1-2.1c0.4-0.4,0.4-1,0-1.4
	C59.9,36.5,59.6,36.4,59.4,36.4z"/>
<path class="st0" d="M82.4,37.5c-0.3,0-0.5,0.1-0.7,0.3c-0.4,0.4-0.4,1,0,1.4l2.1,2.1c0.4,0.4,1,0.4,1.4,0c0.4-0.4,0.4-1,0-1.4
	l-2.1-2.1C82.9,37.6,82.7,37.5,82.4,37.5z"/>
<path class="st0" d="M81.9,52.2c-4.8,0-8.7,3.9-8.7,8.7s3.9,8.7,8.7,8.7c4.8,0,8.7-3.9,8.7-8.7S86.7,52.2,81.9,52.2z M81.9,67.6
	c-3.7,0-6.7-3-6.7-6.7c0-3.7,3-6.7,6.7-6.7s6.7,3,6.7,6.7C88.6,64.6,85.6,67.6,81.9,67.6z"/>
<path class="st0" d="M81.9,57.2c-2,0-3.7,1.6-3.7,3.6s1.6,3.7,3.7,3.7s3.7-1.6,3.7-3.7S83.9,57.2,81.9,57.2z M81.9,62.5
	c-0.9,0-1.7-0.7-1.7-1.7c0-0.9,0.7-1.6,1.7-1.6c0.9,0,1.7,0.7,1.7,1.6C83.5,61.8,82.8,62.5,81.9,62.5z"/>
<path class="st0" d="M81.9,72.6c-4.8,0-8.7,3.9-8.7,8.7c0,4.8,3.9,8.7,8.7,8.7c4.8,0,8.7-3.9,8.7-8.7C90.6,76.5,86.7,72.6,81.9,72.6
	z M81.9,88c-3.7,0-6.7-3-6.7-6.7c0-3.7,3-6.7,6.7-6.7s6.7,3,6.7,6.7S85.6,88,81.9,88z"/>
<path class="st0" d="M81.9,77.7c-2,0-3.7,1.6-3.7,3.6c0,2,1.6,3.7,3.7,3.7s3.7-1.6,3.7-3.7C85.5,79.3,83.9,77.7,81.9,77.7z M81.9,83
	c-0.9,0-1.7-0.7-1.7-1.7c0-0.9,0.7-1.6,1.7-1.6c0.9,0,1.7,0.7,1.7,1.6C83.5,82.2,82.8,83,81.9,83z"/>
<path class="st0" d="M61.5,52.2c-4.8,0-8.7,3.9-8.7,8.7s3.9,8.7,8.7,8.7s8.7-3.9,8.7-8.7S66.2,52.2,61.5,52.2z M61.5,67.6
	c-3.7,0-6.7-3-6.7-6.7c0-3.7,3-6.7,6.7-6.7s6.7,3,6.7,6.7S65.1,67.6,61.5,67.6z"/>
<path class="st0" d="M61.5,57.2c-2,0-3.7,1.6-3.7,3.6s1.6,3.7,3.7,3.7s3.7-1.6,3.7-3.7S63.5,57.2,61.5,57.2z M61.5,62.5
	c-0.9,0-1.7-0.7-1.7-1.7c0-0.9,0.7-1.6,1.7-1.6s1.7,0.7,1.7,1.6C63.1,61.8,62.4,62.5,61.5,62.5z"/>
<path class="st0" d="M61.5,72.6c-4.8,0-8.7,3.9-8.7,8.7c0,4.8,3.9,8.7,8.7,8.7s8.7-3.9,8.7-8.7C70.1,76.5,66.2,72.6,61.5,72.6z
	 M61.5,88c-3.7,0-6.7-3-6.7-6.7c0-3.7,3-6.7,6.7-6.7s6.7,3,6.7,6.7S65.1,88,61.5,88z"/>
<path class="st0" d="M61.5,77.7c-2,0-3.7,1.6-3.7,3.6c0,2,1.6,3.7,3.7,3.7s3.7-1.6,3.7-3.7C65.1,79.3,63.5,77.7,61.5,77.7z M61.5,83
	c-0.9,0-1.7-0.7-1.7-1.7c0-0.9,0.7-1.6,1.7-1.6s1.7,0.7,1.7,1.6C63.1,82.2,62.4,83,61.5,83z"/>
<g>
	<path class="st0" d="M49.9,11c-0.1-0.1-0.2-0.1-0.2-0.2c-0.1-0.1-0.2-0.1-0.3-0.2c-0.1,0-0.2-0.1-0.3-0.2c-0.1,0-0.2-0.1-0.4-0.1
		c-0.1,0-0.1,0-0.2-0.1c-4.1-1.1-9-0.5-14.5,1.8c-5.6,2.3-9.5,5.3-11.6,9.2c-0.2,0.3-0.3,0.7-0.3,0.9c-0.3,0-0.6,0.1-0.9,0.3
		c-3.8,2.1-6.9,6-9.3,11.6c-2.3,5.6-3,10.5-1.8,14.7c0.1,0.3,0.3,0.7,0.5,0.9c-0.2,0.3-0.3,0.6-0.4,0.8c-1.2,4.1-0.6,9.2,1.7,14.8
		c2.3,5.6,5.3,9.5,9.2,11.6c0.3,0.1,0.6,0.2,0.9,0.3c0,0.3,0.1,0.6,0.3,0.9c2.1,3.8,6,6.9,11.6,9.3c5.5,2.3,10.3,2.9,14.4,1.8
		c0.1,0,0.2-0.1,0.3-0.1c0.1-0.1,0.3-0.1,0.4-0.2c0.1,0,0.2-0.1,0.3-0.1c0.2-0.1,0.4-0.3,0.7-0.4c0.2-0.1,0.4-0.2,0.6-0.3v-1.5
		c0,0,0,0,0,0l0-3c0,0,0,0,0,0V11.6c-0.1-0.1-0.3-0.2-0.4-0.4C50.1,11.1,50,11.1,49.9,11z M13.8,34.9c2.2-5.2,5.1-8.8,8.4-10.7
		c0.2-0.1,0.4-0.1,0.6,0.1l2.1,2.1c-3,2-5.5,5.4-7.4,10c-1.9,4.7-2.5,8.6-1.8,12.3l-2.9,0l-0.1,0c-0.2,0-0.4-0.2-0.5-0.4
		C11.2,44.5,11.7,40,13.8,34.9z M47.2,48.8l-29.4-0.1c-0.3-1.6-1-5.3,1.7-11.5c1.8-4.4,4.3-7.6,7.1-9.3L47.2,48.8z M27.8,26.3
		c0.8-1.4,3.1-4.5,9.2-7c4.4-1.8,8.3-2.3,11.6-1.6l0,29.5L27.8,26.3z M47.2,50.7L26.3,71.6c-1.4-0.8-4.5-3.1-7-9.2
		c-1.8-4.4-2.3-8.3-1.6-11.6L47.2,50.7z M22.8,75.2c-0.1,0.2-0.4,0.2-0.6,0c-3.4-1.9-6.1-5.5-8.3-10.7c-2.2-5.1-2.7-9.8-1.7-13.5
		c0.1-0.1,0.2-0.3,0.3-0.3c0.1,0,0.1,0,0.2-0.1l3,0c-0.7,3.6-0.1,7.8,1.8,12.4c1.9,4.6,4.4,7.9,7.4,9.9l-2,2.1
		C22.9,75.1,22.8,75.1,22.8,75.2z M48.2,87.2c-3.8,1-8.3,0.4-13.4-1.6c-5.2-2.2-8.8-5.1-10.7-8.4C24,77,24,76.8,24.2,76.6l2.1-2.1
		c2,3,5.4,5.5,10,7.4c4.7,1.9,8.6,2.5,12.3,1.8l0,2.9l0,0.1C48.6,86.9,48.4,87.1,48.2,87.2z M48.6,81.6c-1.6,0.3-5.3,1-11.5-1.7
		c-4.4-1.8-7.6-4.3-9.3-7.1l20.9-20.7L48.6,81.6z M36.4,17.5c-4.6,1.9-7.9,4.4-9.9,7.4l-2.1-2c0,0,0-0.1-0.1-0.1
		c-0.1-0.3-0.1-0.5,0-0.7c1.9-3.4,5.5-6.1,10.7-8.3c5.2-2.1,9.8-2.7,13.4-1.7c0.2,0,0.3,0.2,0.4,0.5l0,3C45.1,15,41,15.6,36.4,17.5z
		"/>
	<path class="st0" d="M38.7,24.1c0.9,2.3,3.5,3.3,5.7,2.3c2.3-0.9,3.3-3.5,2.3-5.7c-0.9-2.3-3.5-3.3-5.7-2.3
		C38.8,19.2,37.7,21.9,38.7,24.1z M45,21.5c0.5,1.2-0.1,2.6-1.2,3.1c-1.1,0.5-2.6-0.1-3.1-1.2c-0.5-1.1,0.1-2.6,1.2-3.1
		C43,19.7,44.4,20.2,45,21.5z"/>
	<path class="st0" d="M31.4,39.9c1-0.4,1.9-1.2,2.4-2.4c0.9-2.3-0.1-4.8-2.4-5.7c-2.3-0.9-4.8,0.1-5.7,2.4s0.1,4.8,2.4,5.7
		C29.1,40.3,30.4,40.3,31.4,39.9z M27.5,34.9c0.3-0.7,0.8-1.1,1.3-1.3c0.6-0.2,1.2-0.3,1.9,0c1.2,0.5,1.8,1.9,1.3,3.1
		c-0.5,1.2-1.9,1.8-3.1,1.3C27.6,37.5,27,36.1,27.5,34.9z"/>
	<path class="st0" d="M31.6,58.6c2.3-0.9,3.3-3.5,2.3-5.7c-0.9-2.3-3.5-3.3-5.7-2.3c-2.3,0.9-3.3,3.5-2.3,5.7
		C26.7,58.4,29.4,59.5,31.6,58.6z M29,52.3c1.2-0.5,2.6,0.1,3.1,1.2c0.5,1.1-0.1,2.6-1.2,3.1c-1.1,0.5-2.6-0.1-3.1-1.2
		S27.8,52.8,29,52.3z"/>
	<path class="st0" d="M45,71.6c1-0.4,1.9-1.2,2.4-2.4c0.9-2.3-0.1-4.8-2.4-5.7c-2.3-0.9-4.8,0.1-5.7,2.4c-0.9,2.3,0.1,4.8,2.4,5.7
		C42.7,72.1,43.9,72,45,71.6z M41.1,66.6c0.5-1.2,1.9-1.8,3.1-1.3c1.2,0.5,1.8,1.9,1.3,3.1s-1.9,1.8-3.1,1.3
		C41.1,69.3,40.5,67.9,41.1,66.6z"/>
</g>
</svg>
