<?xml version="1.0" encoding="utf-8"?>
<!-- Generator: Adobe Illustrator 23.0.1, SVG Export Plug-In . SVG Version: 6.00 Build 0)  -->
<svg version="1.1" id="Слой_1" xmlns="http://www.w3.org/2000/svg" xmlns:xlink="http://www.w3.org/1999/xlink" x="0px" y="0px"
	 viewBox="0 0 100 125" style="enable-background:new 0 0 100 125;" xml:space="preserve">
<style type="text/css">
	.st0{fill:#FFFFFF;}
</style>
<path class="st0" d="M72.2,40.8c0-2.9-1.5-5.4-3.9-6.9c0.4-1.5,0.6-3,0.6-4.5c0-10.6-8.7-19.3-19.3-19.3C39,10,30.3,18.6,30.3,29.3
	c0,1.7,0.2,3.4,0.7,5c-2,1.5-3.2,3.9-3.2,6.5c0,4.2,3.2,7.7,7.3,8.1l14.6,40.3c0.2,0.6,0.8,0.9,1.4,0.9c0,0,0,0,0,0
	c0.6,0,1.2-0.4,1.4-1L65,48.9C69.1,48.4,72.2,45,72.2,40.8z M49.6,12c8.1,0,15,5.7,16.8,13.2c-2,0.5-3.1,2.2-4.1,3.7
	c-1.2,1.8-2,2.9-3.5,2.9s-2.4-1.1-3.5-2.9c-1.2-1.8-2.5-3.8-5.2-3.8c-2.7,0-4.1,2-5.2,3.8c-1.2,1.8-2,2.9-3.5,2.9
	c-1.5,0-2.4-1.1-3.5-2.9c-1.1-1.7-2.4-3.6-4.8-3.8C34.7,17.6,41.5,12,49.6,12z M29.8,40.8c0-2.1,1.1-4.1,2.9-5.2
	c0.4-0.2,0.6-0.7,0.4-1.1c-0.5-1.7-0.8-3.4-0.8-5.1c0-0.8,0.1-1.5,0.2-2.2c1.5,0,2.4,1.1,3.5,2.9c1.2,1.8,2.5,3.8,5.2,3.8
	s4.1-2,5.2-3.8c1.2-1.8,2-2.9,3.5-2.9c1.5,0,2.4,1.1,3.5,2.9c1.2,1.8,2.5,3.8,5.2,3.8s4.1-2,5.2-3.8c1-1.5,1.7-2.5,2.8-2.8
	c0.1,0.7,0.1,1.4,0.1,2.1c0,1.6-0.2,3.2-0.7,4.8c-0.1,0.5,0.1,1,0.5,1.2c2.1,1,3.5,3.2,3.5,5.5c0,3.4-2.8,6.2-6.2,6.2
	c-1.9,0-3.6-0.8-4.8-2.3c-0.2-0.2-0.5-0.4-0.8-0.4c-0.2,0-0.3,0-0.5,0.1c-2.6,1.4-5.5,2.2-8.4,2.2c-2.8,0-5.4-0.7-7.9-1.9
	c-0.4-0.2-0.9-0.1-1.2,0.2c-1.2,1.3-2.8,2-4.6,2C32.5,46.9,29.8,44.2,29.8,40.8z M51,87L37.1,48.8c1.6-0.2,3.1-1,4.3-2.1
	c2.6,1.2,5.3,1.8,8.2,1.8c3,0,6-0.7,8.7-2.1c1.2,1.2,2.9,2,4.6,2.3L51,87z"/>
</svg>
