<?xml version="1.0" encoding="utf-8"?>
<!-- Generator: Adobe Illustrator 23.0.1, SVG Export Plug-In . SVG Version: 6.00 Build 0)  -->
<svg version="1.1" id="Слой_1" xmlns="http://www.w3.org/2000/svg" xmlns:xlink="http://www.w3.org/1999/xlink" x="0px" y="0px"
	 viewBox="0 0 100 125" style="enable-background:new 0 0 100 125;" xml:space="preserve">
<style type="text/css">
	.st0{fill:#FFFFFF;}
</style>
<path class="st0" d="M62.1,83.2v-11c0-3.7-3-6.8-6.8-6.8H44.7c-3.7,0-6.8,3-6.8,6.8v11c0,3.7,3,6.8,6.8,6.8h10.7
	C59.1,90,62.1,87,62.1,83.2z M60.1,83.2c0,2.6-2.1,4.8-4.8,4.8H44.7c-2.6,0-4.8-2.1-4.8-4.8v-11c0-2.6,2.1-4.8,4.8-4.8h10.7
	c2.6,0,4.8,2.1,4.8,4.8C60.1,72.3,60.1,83.2,60.1,83.2z"/>
<path class="st0" d="M50,69.8c-4.3,0-7.8,3.6-7.8,7.9s3.5,7.9,7.8,7.9s7.8-3.6,7.8-7.9S54.4,69.8,50,69.8z M44.2,77.8
	c0-2,1-3.9,2.6-4.9c-0.2,0.4-0.3,0.9-0.3,1.6c0,1.1,0.4,1.8,0.7,2.2c0.2,0.4,0.4,0.6,0.4,1.1s-0.1,0.8-0.4,1.1
	c-0.3,0.5-0.7,1.1-0.7,2.2c0,0.7,0.2,1.2,0.3,1.6C45.2,81.6,44.2,79.8,44.2,77.8z M49.4,83.7c-0.1-0.6-0.4-1.1-0.6-1.4
	c-0.2-0.4-0.4-0.6-0.4-1.1s0.1-0.8,0.4-1.1c0.3-0.5,0.7-1.1,0.7-2.2c0-1.1-0.4-1.8-0.7-2.2c-0.2-0.4-0.4-0.6-0.4-1.1
	c0-0.5,0.1-0.8,0.4-1.1c0.2-0.3,0.5-0.8,0.6-1.4c0.2,0,0.4,0,0.6,0c0.2,0,0.3,0,0.5,0c0.1,0.6,0.4,1.1,0.6,1.4
	c0.2,0.4,0.4,0.6,0.4,1.1s-0.1,0.8-0.4,1.1c-0.3,0.5-0.7,1.1-0.7,2.2s0.4,1.8,0.7,2.2c0.2,0.4,0.4,0.6,0.4,1.1
	c0,0.5-0.1,0.8-0.4,1.1c-0.2,0.3-0.5,0.8-0.6,1.4c-0.2,0-0.3,0-0.5,0C49.8,83.7,49.6,83.7,49.4,83.7z M53.1,82.8
	c0.2-0.4,0.4-0.9,0.4-1.7c0-1.1-0.4-1.8-0.7-2.2c-0.2-0.4-0.4-0.6-0.4-1.1s0.1-0.8,0.4-1.1c0.3-0.5,0.7-1.1,0.7-2.2
	c0-0.8-0.2-1.3-0.4-1.7c1.7,1,2.8,2.9,2.8,5.1C55.9,79.9,54.8,81.8,53.1,82.8z"/>
<path class="st0" d="M62.3,16.9c0-3.7-3-6.8-6.8-6.8H44.7c-3.7,0-6.8,3-6.8,6.8v10.9c0,3.7,3,6.8,6.8,6.8h10.9c3.7,0,6.8-3,6.8-6.8
	L62.3,16.9L62.3,16.9z M60.3,27.8c0,2.6-2.2,4.8-4.8,4.8H44.7c-2.6,0-4.8-2.1-4.8-4.8V16.9c0-2.6,2.2-4.8,4.8-4.8h10.9
	c2.6,0,4.8,2.1,4.8,4.8L60.3,27.8L60.3,27.8z"/>
<path class="st0" d="M50.1,15.5c-3.8,0-6.8,3.1-6.8,6.8s3.1,6.8,6.8,6.8s6.8-3.1,6.8-6.8S53.9,15.5,50.1,15.5z M45.7,24.3
	c-0.1-0.3-0.3-0.6-0.3-1h9.5c-0.1,0.3-0.2,0.7-0.3,1H45.7z M54.5,20.4c0.1,0.3,0.3,0.6,0.3,1h-9.5c0.1-0.3,0.2-0.7,0.3-1H54.5z
	 M52.9,18.4h-5.5c0.8-0.5,1.7-0.9,2.8-0.9S52.1,17.8,52.9,18.4z M47.3,26.3h5.5c-0.8,0.5-1.7,0.9-2.8,0.9S48.1,26.9,47.3,26.3z"/>
<path class="st0" d="M83.1,65.6H72.2c-3.7,0-6.8,3-6.8,6.8v10.9c0,3.7,3,6.8,6.8,6.8h10.9c3.7,0,6.8-3,6.8-6.8V72.4
	C89.8,68.6,86.8,65.6,83.1,65.6z M87.8,83.2c0,2.6-2.1,4.8-4.8,4.8H72.2c-2.6,0-4.8-2.2-4.8-4.8V72.4c0-2.6,2.1-4.8,4.8-4.8h10.9
	c2.6,0,4.8,2.2,4.8,4.8L87.8,83.2L87.8,83.2z"/>
<path class="st0" d="M77.6,70.9c-3.8,0-6.8,3.1-6.8,6.8s3.1,6.8,6.8,6.8s6.8-3.1,6.8-6.8S81.4,70.9,77.6,70.9z M75.7,73.4
	c0.3-0.1,0.6-0.3,1-0.3v9.5c-0.3-0.1-0.7-0.2-1-0.3V73.4z M78.6,73c0.3,0.1,0.7,0.2,1,0.3v8.8c-0.3,0.1-0.6,0.3-1,0.3V73z
	 M72.8,77.8c0-1,0.3-2,0.9-2.8v5.5C73.1,79.8,72.8,78.8,72.8,77.8z M81.6,80.5V75c0.5,0.8,0.9,1.7,0.9,2.8S82.1,79.8,81.6,80.5z"/>
<path class="st0" d="M34.8,16.8c0-3.8-3.1-6.9-6.9-6.9h-11c-3.8,0-6.9,3.1-6.9,6.9v11c0,3.8,3.1,6.9,6.9,6.9h11
	c3.8,0,6.9-3.1,6.9-6.9V16.8z M32.8,27.9c0,2.7-2.2,4.9-4.9,4.9V31c0-0.6-0.4-1-1-1s-1,0.4-1,1v1.7h-9c-2,0-3.7-1.2-4.5-3
	c0,0.1,0.1,0.1,0.1,0.2c0.2,0.2,0.5,0.3,0.7,0.3s0.5-0.1,0.7-0.3l1.3-1.3c0.4-0.4,0.4-1,0-1.4s-1-0.4-1.4,0l-1.3,1.3
	c-0.2,0.2-0.3,0.4-0.3,0.7c-0.1-0.4-0.2-0.9-0.2-1.4v-11c0-1.1,0.3-2,0.9-2.8l0.9,0.9c0.2,0.2,0.5,0.3,0.7,0.3s0.5-0.1,0.7-0.3
	c0.4-0.4,0.4-1,0-1.4l-0.9-0.9c0.7-0.4,1.6-0.7,2.5-0.7h5.4v0.9c0,0.6,0.4,1,1,1s1-0.4,1-1V12h3.6c2.7,0,4.9,2.2,4.9,4.9L32.8,27.9
	L32.8,27.9z"/>
<path class="st0" d="M29.2,15.3c-0.4,0.4-0.4,1,0,1.4l1.3,1.3c0.2,0.2,0.5,0.3,0.7,0.3s0.5-0.1,0.7-0.3c0.4-0.4,0.4-1,0-1.4
	l-1.3-1.3C30.2,14.9,29.6,14.9,29.2,15.3z"/>
<path class="st0" d="M29.5,25.7c1.4-2.9,0.9-6.6-1.6-9c-2.2-2.2-5.3-2.8-8-1.9l-1.3-1.3c-0.4-0.4-1-0.4-1.4,0s-0.4,1,0,1.4l0.7,0.7
	c-0.5,0.3-0.9,0.6-1.3,1c-1.3,1.3-2,2.9-2.2,4.6h-0.3c-0.6,0-1,0.4-1,1s0.4,1,1,1h0.3c0.2,1.7,1,3.3,2.2,4.6
	c0.4,0.4,0.9,0.8,1.4,1.1l-0.7,0.7c-0.4,0.4-0.4,1,0,1.4c0.2,0.2,0.5,0.3,0.7,0.3s0.5-0.1,0.7-0.3l1.2-1.2c0.7,0.2,1.5,0.3,2.2,0.3
	c2,0,4.1-0.8,5.6-2.3c0.2-0.2,0.3-0.3,0.5-0.5l0.7,0.7c0.2,0.2,0.5,0.3,0.7,0.3s0.5-0.1,0.7-0.3c0.4-0.4,0.4-1,0-1.4L29.5,25.7z
	 M18.2,26.5c-2.3-2.3-2.3-6.1,0-8.4c2.3-2.3,6.1-2.3,8.4,0c2.3,2.3,2.3,6.1,0,8.4C24.3,28.8,20.5,28.9,18.2,26.5z"/>
<path class="st0" d="M90,44.2c0-3.8-3.1-6.9-6.9-6.9h-11c-3.8,0-6.9,3.1-6.9,6.9v11.1c0,3.8,3.1,6.9,6.9,6.9h11
	c3.8,0,6.9-3.1,6.9-6.9L90,44.2L90,44.2z M83.1,60.2v-1.7c0-0.6-0.4-1-1-1s-1,0.4-1,1v1.7h-9c-1.1,0-2.1-0.4-2.9-1l1-1
	c0.4-0.4,0.4-1,0-1.4c-0.4-0.4-1-0.4-1.4,0l-0.9,0.9c-0.4-0.7-0.6-1.5-0.6-2.4V44.2c0-1.1,0.3-2,0.9-2.8l0.9,0.9
	c0.2,0.2,0.5,0.3,0.7,0.3c0.3,0,0.5-0.1,0.7-0.3c0.4-0.4,0.4-1,0-1.4L69.6,40c0.7-0.4,1.6-0.7,2.5-0.7h5.4v0.9c0,0.6,0.4,1,1,1
	s1-0.4,1-1v-0.9h3.5c2.7,0,4.9,2.2,4.9,4.9v3h-1.1c-0.6,0-1,0.4-1,1s0.4,1,1,1H88v6.2C88,58,85.8,60.2,83.1,60.2z"/>
<path class="st0" d="M84.5,43.6c0.2,0.2,0.5,0.3,0.7,0.3c0.3,0,0.5-0.1,0.7-0.3c0.4-0.4,0.4-1,0-1.4l-1.3-1.3c-0.4-0.4-1-0.4-1.4,0
	c-0.4,0.4-0.4,1,0,1.4L84.5,43.6z"/>
<path class="st0" d="M84.8,53.2c1.4-3,0.9-6.7-1.5-9.1c-1.5-1.5-3.5-2.3-5.6-2.3c-0.8,0-1.6,0.1-2.4,0.4L74,40.9
	c-0.4-0.4-1-0.4-1.4,0c-0.4,0.4-0.4,1,0,1.4l0.8,0.8c-0.5,0.3-0.9,0.7-1.3,1.1c-1.6,1.6-2.4,3.8-2.3,5.9h-0.9c-0.6,0-1,0.4-1,1
	s0.4,1,1,1H70c0.4,1.2,1,2.4,2,3.4c0.4,0.4,0.8,0.7,1.2,1L72.6,57c-0.4,0.4-0.4,1,0,1.4c0.2,0.2,0.4,0.3,0.7,0.3
	c0.3,0,0.5-0.1,0.7-0.3l1.1-1.1c0.8,0.3,1.7,0.4,2.5,0.4c2.1,0,4.1-0.8,5.6-2.3c0.1-0.1,0.3-0.3,0.4-0.5l0.8,0.8
	c0.2,0.2,0.5,0.3,0.7,0.3c0.3,0,0.5-0.1,0.7-0.3c0.4-0.4,0.4-1,0-1.4L84.8,53.2z M77.6,55.7c-1.6,0-3.1-0.6-4.2-1.7
	c-2.3-2.3-2.3-6.1,0-8.5c1.1-1.1,2.6-1.7,4.2-1.7c1.6,0,3.1,0.6,4.2,1.7c2.3,2.3,2.3,6.1,0,8.5C80.7,55.1,79.2,55.7,77.6,55.7z"/>
<path class="st0" d="M62.3,44.2c0-3.8-3.1-6.9-6.9-6.9H44.7c-3.8,0-6.9,3.1-6.9,6.9v11.2c0,3.8,3.1,6.9,6.9,6.9h10.8
	c3.8,0,6.9-3.1,6.9-6.9L62.3,44.2L62.3,44.2z M60.3,55.4c0,2.7-2.2,4.9-4.9,4.9H44.7c-2.7,0-4.9-2.2-4.9-4.9V44.2
	c0-2.7,2.2-4.9,4.9-4.9h10.8c2.7,0,4.9,2.2,4.9,4.9L60.3,55.4L60.3,55.4z"/>
<path class="st0" d="M50,42.8c-3.8,0-6.9,3.1-6.9,7c0,3.8,3.1,7,6.9,7c3.8,0,6.9-3.1,6.9-7C56.9,45.9,53.8,42.8,50,42.8z M45.2,49.8
	c0-2.4,1.7-4.4,3.9-4.9v9.7C46.8,54.2,45.2,52.2,45.2,49.8z M51,54.6v-9.7c2.2,0.5,3.9,2.5,3.9,4.9C54.9,52.2,53.3,54.2,51,54.6z"/>
<path class="st0" d="M16.9,90h10.9c3.8,0,6.8-3.1,6.8-6.8V72.3c0-3.8-3.1-6.8-6.8-6.8H16.9c-3.8,0-6.8,3.1-6.8,6.8v10.9
	C10.1,87,13.2,90,16.9,90z M12.1,72.3c0-2.7,2.2-4.8,4.8-4.8h10.9c2.7,0,4.8,2.2,4.8,4.8v10.9c0,2.7-2.2,4.8-4.8,4.8H16.9
	c-2.7,0-4.8-2.2-4.8-4.8L12.1,72.3L12.1,72.3z"/>
<path class="st0" d="M22.4,84.7c3.8,0,6.9-3.1,6.9-6.9c0-3.8-3.1-6.9-6.9-6.9c-3.8,0-6.9,3.1-6.9,6.9C15.5,81.6,18.6,84.7,22.4,84.7
	z M22.4,82.7c-2.3,0-4.3-1.7-4.8-3.9h9.5C26.7,81,24.7,82.7,22.4,82.7z M22.4,72.9c2.3,0,4.3,1.7,4.8,3.9h-9.5
	C18.1,74.6,20,72.9,22.4,72.9z"/>
<path class="st0" d="M28.4,49.8c3.2,0,5.8-2.6,5.8-5.8s-2.6-5.8-5.8-5.8s-5.8,2.6-5.8,5.8S25.2,49.8,28.4,49.8z M28.4,40.3
	c2.1,0,3.8,1.7,3.8,3.8c0,2.1-1.7,3.8-3.8,3.8c-2.1,0-3.8-1.7-3.8-3.8C24.7,42,26.3,40.3,28.4,40.3z"/>
<path class="st0" d="M28.4,46.7c1.5,0,2.6-1.2,2.6-2.6s-1.2-2.6-2.6-2.6s-2.6,1.2-2.6,2.6S27,46.7,28.4,46.7z M28.4,43.4
	c0.4,0,0.6,0.3,0.6,0.6s-0.3,0.6-0.6,0.6s-0.6-0.3-0.6-0.6S28.1,43.4,28.4,43.4z"/>
<path class="st0" d="M28.4,62.5c3.2,0,5.8-2.6,5.8-5.8S31.6,51,28.4,51s-5.8,2.6-5.8,5.8S25.2,62.5,28.4,62.5z M28.4,53
	c2.1,0,3.8,1.7,3.8,3.8s-1.7,3.8-3.8,3.8c-2.1,0-3.8-1.7-3.8-3.8S26.3,53,28.4,53z"/>
<path class="st0" d="M28.4,59.4c1.5,0,2.6-1.2,2.6-2.6s-1.2-2.6-2.6-2.6s-2.6,1.2-2.6,2.6S27,59.4,28.4,59.4z M28.4,56.1
	c0.4,0,0.6,0.3,0.6,0.6s-0.3,0.6-0.6,0.6s-0.6-0.3-0.6-0.6S28.1,56.1,28.4,56.1z"/>
<path class="st0" d="M15.8,49.8c3.2,0,5.8-2.6,5.8-5.8s-2.6-5.8-5.8-5.8S10,40.9,10,44.1S12.6,49.8,15.8,49.8z M15.8,40.3
	c2.1,0,3.8,1.7,3.8,3.8c0,2.1-1.7,3.8-3.8,3.8c-2.1,0-3.8-1.7-3.8-3.8C12,42,13.7,40.3,15.8,40.3z"/>
<path class="st0" d="M15.8,46.7c1.5,0,2.6-1.2,2.6-2.6s-1.2-2.6-2.6-2.6s-2.6,1.2-2.6,2.6S14.3,46.7,15.8,46.7z M15.8,43.4
	c0.4,0,0.6,0.3,0.6,0.6s-0.3,0.6-0.6,0.6s-0.6-0.3-0.6-0.6S15.4,43.4,15.8,43.4z"/>
<path class="st0" d="M15.8,62.5c3.2,0,5.8-2.6,5.8-5.8S18.9,51,15.8,51S10,53.6,10,56.7S12.6,62.5,15.8,62.5z M15.8,53
	c2.1,0,3.8,1.7,3.8,3.8s-1.7,3.8-3.8,3.8c-2.1,0-3.8-1.7-3.8-3.8S13.7,53,15.8,53z"/>
<path class="st0" d="M15.8,59.4c1.5,0,2.6-1.2,2.6-2.6s-1.2-2.6-2.6-2.6s-2.6,1.2-2.6,2.6S14.3,59.4,15.8,59.4z M15.8,56.1
	c0.4,0,0.6,0.3,0.6,0.6s-0.3,0.6-0.6,0.6s-0.6-0.3-0.6-0.6S15.4,56.1,15.8,56.1z"/>
<path class="st0" d="M84.3,9.9c-3.2,0-5.7,2.6-5.7,5.7s2.6,5.7,5.7,5.7s5.7-2.6,5.7-5.7S87.4,9.9,84.3,9.9z M84.3,19.3
	c-2.1,0-3.7-1.7-3.7-3.7s1.7-3.7,3.7-3.7s3.7,1.7,3.7,3.7S86.3,19.3,84.3,19.3z"/>
<path class="st0" d="M84.3,13c-1.4,0-2.6,1.2-2.6,2.6s1.2,2.6,2.6,2.6s2.6-1.2,2.6-2.6S85.7,13,84.3,13z M84.3,16.2
	c-0.3,0-0.6-0.3-0.6-0.6s0.3-0.6,0.6-0.6s0.6,0.3,0.6,0.6S84.6,16.2,84.3,16.2z"/>
<path class="st0" d="M84.3,22.4c-3.2,0-5.7,2.6-5.7,5.7s2.6,5.7,5.7,5.7s5.7-2.6,5.7-5.7S87.4,22.4,84.3,22.4z M84.3,31.9
	c-2.1,0-3.7-1.7-3.7-3.7s1.7-3.7,3.7-3.7s3.7,1.7,3.7,3.7S86.3,31.9,84.3,31.9z"/>
<path class="st0" d="M84.3,25.5c-1.4,0-2.6,1.2-2.6,2.6s1.2,2.6,2.6,2.6s2.6-1.2,2.6-2.6S85.7,25.5,84.3,25.5z M84.3,28.8
	c-0.3,0-0.6-0.3-0.6-0.6s0.3-0.6,0.6-0.6s0.6,0.3,0.6,0.6S84.6,28.8,84.3,28.8z"/>
<path class="st0" d="M71.7,9.9c-3.2,0-5.7,2.6-5.7,5.7s2.6,5.7,5.7,5.7s5.7-2.6,5.7-5.7S74.9,9.9,71.7,9.9z M71.7,19.3
	c-2.1,0-3.7-1.7-3.7-3.7s1.7-3.7,3.7-3.7c2.1,0,3.7,1.7,3.7,3.7S73.8,19.3,71.7,19.3z"/>
<path class="st0" d="M71.7,13c-1.4,0-2.6,1.2-2.6,2.6s1.2,2.6,2.6,2.6s2.6-1.2,2.6-2.6S73.2,13,71.7,13z M71.7,16.2
	c-0.3,0-0.6-0.3-0.6-0.6s0.3-0.6,0.6-0.6s0.6,0.3,0.6,0.6S72.1,16.2,71.7,16.2z"/>
<path class="st0" d="M71.7,22.4c-3.2,0-5.7,2.6-5.7,5.7s2.6,5.7,5.7,5.7s5.7-2.6,5.7-5.7S74.9,22.4,71.7,22.4z M71.7,31.9
	c-2.1,0-3.7-1.7-3.7-3.7s1.7-3.7,3.7-3.7c2.1,0,3.7,1.7,3.7,3.7S73.8,31.9,71.7,31.9z"/>
<path class="st0" d="M71.7,25.5c-1.4,0-2.6,1.2-2.6,2.6s1.2,2.6,2.6,2.6s2.6-1.2,2.6-2.6S73.2,25.5,71.7,25.5z M71.7,28.8
	c-0.3,0-0.6-0.3-0.6-0.6s0.3-0.6,0.6-0.6s0.6,0.3,0.6,0.6S72.1,28.8,71.7,28.8z"/>
</svg>
