<?xml version="1.0" encoding="utf-8"?>
<!-- Generator: Adobe Illustrator 23.0.1, SVG Export Plug-In . SVG Version: 6.00 Build 0)  -->
<svg version="1.1" id="Слой_1" xmlns="http://www.w3.org/2000/svg" xmlns:xlink="http://www.w3.org/1999/xlink" x="0px" y="0px"
	 viewBox="0 0 100 125" style="enable-background:new 0 0 100 125;" xml:space="preserve">
<style type="text/css">
	.st0{fill:#FFFFFF;}
</style>
<path class="st0" d="M90,20.3c0-5.6-4.6-10.2-10.2-10.2H62.7c-5.6,0-10.2,4.6-10.2,10.2v17.2c0,5.6,4.6,10.2,10.2,10.2h17.2
	c5.6,0,10.2-4.6,10.2-10.2V20.3z M88,37.5c0,4.5-3.7,8.2-8.2,8.2H62.7c-4.5,0-8.2-3.7-8.2-8.2V20.3c0-4.5,3.7-8.2,8.2-8.2h17.2
	c4.5,0,8.2,3.7,8.2,8.2V37.5z"/>
<path class="st0" d="M71.2,18.6c-5.7,0-10.2,4.6-10.2,10.2s4.6,10.3,10.2,10.3s10.3-4.6,10.3-10.3S76.9,18.6,71.2,18.6z M78.6,32.6
	H63.9c-0.4-0.8-0.7-1.7-0.8-2.7h16.4C79.3,30.8,79,31.7,78.6,32.6z M63.1,27.9c0.1-1,0.4-1.9,0.8-2.7h14.7c0.4,0.8,0.7,1.7,0.8,2.7
	H63.1z M71.2,20.6c2.3,0,4.4,1,5.9,2.5H65.3C66.8,21.6,68.9,20.6,71.2,20.6z M71.2,37.1c-2.3,0-4.4-1-5.9-2.5h11.9
	C75.7,36.1,73.6,37.1,71.2,37.1z"/>
<path class="st0" d="M90,79.8V62.6c0-5.6-4.6-10.2-10.2-10.2H62.7c-5.6,0-10.2,4.6-10.2,10.2v17.2C52.5,85.4,57,90,62.7,90h17.2
	C85.4,90,90,85.4,90,79.8z M54.5,79.8V62.6c0-4.5,3.7-8.2,8.2-8.2h17.2c4.5,0,8.2,3.7,8.2,8.2v17.2c0,4.5-3.7,8.2-8.2,8.2H62.7
	C58.2,88,54.5,84.3,54.5,79.8z"/>
<path class="st0" d="M71.2,61C65.6,61,61,65.6,61,71.2s4.6,10.2,10.2,10.2s10.3-4.6,10.3-10.2S76.9,61,71.2,61z M63,71.2
	c0-4.2,3.2-7.7,7.3-8.2v16.4C66.2,78.9,63,75.4,63,71.2z M72.2,79.4V63.1c4.1,0.5,7.2,4,7.2,8.2C79.5,75.4,76.3,78.9,72.2,79.4z"/>
<path class="st0" d="M10,79.8C10,85.4,14.6,90,20.2,90h17.2c5.6,0,10.2-4.6,10.2-10.2V62.6c0-5.6-4.6-10.2-10.2-10.2H20.2
	C14.6,52.5,10,57,10,62.6V79.8z M12,62.6c0-4.5,3.7-8.2,8.2-8.2h17.2c4.5,0,8.2,3.7,8.2,8.2v17.2c0,4.5-3.7,8.2-8.2,8.2H20.2
	c-4.5,0-8.2-3.7-8.2-8.2V62.6z"/>
<path class="st0" d="M28.8,81.5c5.7,0,10.2-4.6,10.2-10.2S34.4,61,28.8,61s-10.3,4.6-10.3,10.3S23.1,81.5,28.8,81.5z M37,71.2
	c0,1.8-0.6,3.5-1.6,4.9L23.8,64.6c1.4-1,3.1-1.6,4.9-1.6C33.3,63,37,66.7,37,71.2z M22.4,66L34,77.6c-1.4,1.2-3.2,1.9-5.2,1.9
	c-4.5,0-8.3-3.7-8.3-8.2C20.5,69.3,21.2,67.4,22.4,66z"/>
<path class="st0" d="M20.2,47.7h17.3c5.6,0,10.2-4.6,10.2-10.2V20.2c0-5.6-4.6-10.2-10.2-10.2H20.2C14.6,10,10,14.6,10,20.2v17.3
	C10,43.2,14.6,47.7,20.2,47.7z M12,20.2c0-2,0.7-3.9,1.9-5.3l1.9,1.9c0.2,0.2,0.5,0.3,0.7,0.3s0.5-0.1,0.7-0.3c0.4-0.4,0.4-1,0-1.4
	l-1.9-1.9c1.4-1,3-1.6,4.8-1.6h8.4V14c0,0.6,0.4,1,1,1s1-0.4,1-1V12h6.9c4.5,0,8.2,3.7,8.2,8.2v5.2c0,0,0,0,0,0h-2.9
	c-0.6,0-1,0.4-1,1s0.4,1,1,1h2.9c0,0,0,0,0,0v10.1c0,4.5-3.7,8.2-8.2,8.2H37v-2.5c0-0.6-0.4-1-1-1s-1,0.4-1,1v2.5H20.2
	c-4.5,0-8.2-3.7-8.2-8.2C12,37.5,12,20.2,12,20.2z"/>
<path class="st0" d="M17,29.8h-1.9c-0.6,0-1,0.4-1,1s0.4,1,1,1h2.3c0.5,2,1.5,3.9,3.1,5.4c0.5,0.5,1,0.9,1.6,1.3l-1.5,1.5
	c-0.4,0.4-0.4,1,0,1.4c0.2,0.2,0.5,0.3,0.7,0.3s0.5-0.1,0.7-0.3l1.9-1.9c1.6,0.7,3.3,1.1,5,1.1c3,0,6.1-1.2,8.4-3.5
	c4.6-4.6,4.6-12.2,0-16.8c-3.3-3.3-8.2-4.3-12.3-2.8c0-0.1-0.1-0.1-0.1-0.2l-2.1-2.1c-0.4-0.4-1-0.4-1.4,0s-0.4,1,0,1.4l1.7,1.7
	c-0.9,0.5-1.8,1.2-2.6,1.9C17.9,23,16.8,26.5,17,29.8z M21.9,21.9c1.9-1.9,4.5-2.9,7-2.9c2.5,0,5.1,1,7,2.9c3.9,3.9,3.9,10.1,0,14
	c-3.9,3.9-10.1,3.9-14,0C18,32,18,25.7,21.9,21.9z"/>
<path class="st0" d="M34.9,16.1h2.9c0.6,0,1-0.4,1-1s-0.4-1-1-1h-2.9c-0.6,0-1,0.4-1,1S34.4,16.1,34.9,16.1z"/>
<path class="st0" d="M30.3,42.2h-2.9c-0.6,0-1,0.4-1,1s0.4,1,1,1h2.9c0.6,0,1-0.4,1-1S30.9,42.2,30.3,42.2z"/>
<path class="st0" d="M43.2,35.3c0.6,0,1-0.4,1-1v-2.9c0-0.6-0.4-1-1-1s-1,0.4-1,1v2.9C42.2,34.9,42.6,35.3,43.2,35.3z"/>
<path class="st0" d="M15.9,22.7c0.2,0.2,0.5,0.3,0.7,0.3s0.5-0.1,0.7-0.3c0.4-0.4,0.4-1,0-1.4l-2.1-2.1c-0.4-0.4-1-0.4-1.4,0
	s-0.4,1,0,1.4L15.9,22.7z"/>
<path class="st0" d="M42,21.7c0.2,0.2,0.5,0.3,0.7,0.3s0.5-0.1,0.7-0.3c0.4-0.4,0.4-1,0-1.4l-2.1-2.1c-0.4-0.4-1-0.4-1.4,0
	s-0.4,1,0,1.4L42,21.7z"/>
<path class="st0" d="M15.2,40.4l2.1-2.1c0.4-0.4,0.4-1,0-1.4s-1-0.4-1.4,0L13.8,39c-0.4,0.4-0.4,1,0,1.4c0.2,0.2,0.5,0.3,0.7,0.3
	S15,40.6,15.2,40.4z"/>
<path class="st0" d="M38.9,38c-0.4,0.4-0.4,1,0,1.4l2.1,2.1c0.2,0.2,0.5,0.3,0.7,0.3s0.5-0.1,0.7-0.3c0.4-0.4,0.4-1,0-1.4L40.3,38
	C39.9,37.6,39.3,37.6,38.9,38z"/>
</svg>
