<?xml version="1.0" encoding="utf-8"?>
<!-- Generator: Adobe Illustrator 23.0.1, SVG Export Plug-In . SVG Version: 6.00 Build 0)  -->
<svg version="1.1" id="Слой_1" xmlns="http://www.w3.org/2000/svg" xmlns:xlink="http://www.w3.org/1999/xlink" x="0px" y="0px"
	 viewBox="0 0 100 125" style="enable-background:new 0 0 100 125;" xml:space="preserve">
<style type="text/css">
	.st0{fill:#FFFFFF;}
</style>
<title>Icons_MinimalFood_Vineta</title>
<path class="st0" d="M88.2,40.1h-0.3c1.8-8.3-3.3-16.3-11.6-18.3c-3-0.7-6.1-0.4-8.9,0.7c0.2-3.8,0.2-6.7,0.2-7.4
	c0-0.9-0.7-1.7-1.6-1.8c-2.7-0.4-5.4-0.6-8.2-0.6c-6.1,0-14.2,1.1-18.8,6.2c-1.6,1.8-2.9,3.8-3.8,6.1c-7.8-3-19.5-4.4-21.2-4.6
	c-0.6-0.1-1.2,0.2-1.5,0.5c-0.4,0.4-0.6,1-0.5,1.5c0.7,5.9,1.8,11.8,3.4,17.6h-3.5c-1,0-1.8,0.8-1.8,1.8c0,3.7,0.5,7.3,1.5,10.8
	c0,0.2,0.1,0.2,0.1,0.4C17.8,74.2,40,86.4,61.2,80.2C78.2,75.3,90,59.7,90,41.9C90,40.9,89.2,40.1,88.2,40.1z M72.8,25.2
	c6.3,0,11.5,5.2,11.5,11.5c0,1.1-0.2,2.2-0.5,3.3H63c2.2-3.3,3.3-8.4,3.8-13.2C68.7,25.8,70.8,25.2,72.8,25.2z M38.6,26.6
	c0.7-1.9,1.8-3.8,3.2-5.2c3.6-4.1,10.7-5,15.9-5c2,0,4,0.1,6,0.3c0,2.3-0.1,5.5-0.4,8.8l0,0c-0.6,5.4-1.8,11.1-4.1,13.4
	c-0.4,0.4-0.8,0.8-1.2,1.1H45.4c1.8-3.8,4.1-7.4,7-10.5c0.8-0.8,0.8-1.9,0-2.7c-0.8-0.8-1.9-0.8-2.7,0c-2.2,2.2-4,4.7-5.6,7.3
	c-0.1-0.2-0.1-0.3-0.2-0.4c0-0.1-0.1-0.2-0.1-0.2c-0.2-0.4-0.3-0.8-0.5-1.2c0,0,0-0.1-0.1-0.1c-0.2-0.4-0.4-0.8-0.7-1.2
	c-0.1-0.1-0.1-0.2-0.2-0.2c-0.2-0.4-0.5-0.8-0.8-1.2c-0.1-0.1-0.1-0.1-0.2-0.2c-0.3-0.4-0.7-0.7-1-1.1l0,0c-0.2-0.2-0.3-0.3-0.5-0.4
	l-0.1-0.1C39.6,27.3,39.1,27,38.6,26.6z M15.9,24.4c5.4,0.8,14.5,2.4,19.5,4.8c0.1,0.1,0.2,0.1,0.2,0.1c0.8,0.4,1.7,0.9,2.4,1.6
	c0.2,0.2,0.5,0.6,0.8,0.8c0,0.1,0.1,0.1,0.1,0.2c0.2,0.2,0.4,0.6,0.7,0.9c0,0.1,0.1,0.1,0.1,0.2c0.2,0.3,0.3,0.7,0.5,0.9
	c0,0.1,0.1,0.1,0.1,0.2c0.2,0.3,0.3,0.7,0.4,1.1l0,0c0.1,0.3,0.2,0.7,0.3,1.1c0,0.1,0,0.1,0,0.2c0.1,0.3,0.2,0.8,0.2,1.1
	c0,0.1,0,0.2,0,0.2c0,0.3,0.1,0.8,0.1,1.1c0,0.1,0,0.1,0,0.2c0,0.4,0,0.8-0.1,1.2l0,0h-5.8c-1.5-1.2-5.8-4.9-7.2-6
	c-0.8-0.7-2-0.5-2.7,0.2c-0.7,0.8-0.5,2,0.2,2.7c0,0,0.1,0,0.1,0.1c0.7,0.5,2.2,1.8,3.7,3H19.2C17.8,34.9,16.6,29.7,15.9,24.4z
	 M85.2,43.8L85.2,43.8L85.2,43.8h1c-0.1,2.2-0.4,4.5-1,6.7H14.8c-0.6-2.2-0.9-4.5-1-6.7H85.2z M50,78.1c-15.2,0-28.8-9.6-34.1-23.9
	h55.5C67,62,58.8,66.7,50,66.7c-1,0-1.8,0.8-1.8,1.8s0.8,1.8,1.8,1.8c10.9,0,20.9-6.2,25.7-16.2h8.4C78.8,68.6,65.2,78.1,50,78.1z"
	/>
</svg>
