<?xml version="1.0" encoding="utf-8"?>
<!-- Generator: Adobe Illustrator 23.0.1, SVG Export Plug-In . SVG Version: 6.00 Build 0)  -->
<svg version="1.1" id="Слой_1" xmlns="http://www.w3.org/2000/svg" xmlns:xlink="http://www.w3.org/1999/xlink" x="0px" y="0px"
	 viewBox="0 0 60 60" style="enable-background:new 0 0 60 60;" xml:space="preserve">
<style type="text/css">
	.st0{fill:#FFFFFF;}
</style>
<g id="_x31_-Call">
</g>
<g id="_x32_-24_Hours_Call">
</g>
<g id="_x33_-Sending_Call">
</g>
<g id="_x34_-Incoming_Call">
</g>
<g id="_x35_-Talk_On_Phone">
</g>
<g id="_x36_-Block_Call">
	<g>
		<path class="st0" d="M43.5,37.2l-4.4-3c-0.5-0.4-1.2-0.6-1.9-0.6c-1.1,0-2.2,0.5-2.8,1.4l-1,1.5c-1.7-1.1-3.6-2.7-5.4-4.5
			s-3.4-3.7-4.5-5.4l1.5-1c1.5-1.1,1.9-3.2,0.8-4.7l-3-4.4c-0.9-1.2-2.5-1.8-3.8-1.3c-0.4,0.1-0.7,0.3-1.1,0.5l-0.6,0.4
			c-0.1,0.1-0.3,0.3-0.4,0.4c-0.7,0.7-1.3,1.7-1.5,2.8C14,24,17.2,31.2,23,37c4.9,4.9,10.9,8,15.5,8l0,0c0.8,0,1.5-0.1,2.2-0.3
			c1.1-0.3,2-0.8,2.8-1.5c0.1-0.1,0.3-0.3,0.4-0.5l0.4-0.6c0.2-0.3,0.4-0.7,0.5-1.1C45.3,39.6,44.8,38.1,43.5,37.2z"/>
	</g>
</g>
<g id="_x37_-Hold_Call">
</g>
<g id="_x38_-Mute_Call">
</g>
<g id="_x39_-Phone_Book">
</g>
<g id="_x31_0-Add_Contact">
</g>
<g id="_x31_1-Delete_Contact">
</g>
<g id="_x31_2-Mail">
</g>
<g id="_x31_3-Message_Read">
</g>
<g id="_x31_4-Email">
</g>
<g id="_x31_5-Send_Mail">
</g>
<g id="_x31_6-Important_Mail">
</g>
<g id="_x31_7-Mail_Chain">
</g>
<g id="_x31_8-Messaging">
</g>
<g id="_x31_9-Sending">
</g>
<g id="_x32_0-Chat">
</g>
<g id="_x32_1-Mail_Attachment">
</g>
<g id="_x32_2-Mobile_Link">
</g>
<g id="_x32_3-Smartphone">
</g>
<g id="_x32_4-Social_Media">
</g>
<g id="_x32_5-Support">
</g>
<g id="_x32_6-Links">
</g>
<g id="_x32_7-Phone">
</g>
<g id="_x32_8-Phone-2">
</g>
<g id="_x32_9-Map">
</g>
<g id="_x33_0-Location">
</g>
<g id="_x33_1-Write">
</g>
<g id="_x33_2-World">
</g>
<g id="_x33_3-Home">
</g>
<g id="_x33_4-Calendar">
</g>
<g id="_x33_5-Website">
</g>
<g id="_x33_6-Info">
</g>
<g id="_x33_7-Bull_Horn">
</g>
<g id="_x33_8-Profile">
</g>
<g id="_x33_9-Quote__x26__Answer">
</g>
<g id="_x34_0-Notification">
</g>
<g id="_x34_1-Share">
</g>
<g id="_x34_2-Time">
</g>
</svg>
