<?xml version="1.0" encoding="utf-8"?>
<!-- Generator: Adobe Illustrator 23.0.1, SVG Export Plug-In . SVG Version: 6.00 Build 0)  -->
<svg version="1.1" id="Слой_1" xmlns="http://www.w3.org/2000/svg" xmlns:xlink="http://www.w3.org/1999/xlink" x="0px" y="0px"
	 viewBox="0 0 112 16" style="enable-background:new 0 0 112 16;" xml:space="preserve">
<style type="text/css">
	.st0{fill:#FFFFFF;enable-background:new    ;}
</style>
<path class="st0" d="M7.4,6V1.9c0-1,0.8-1.9,1.8-1.9s1.8,0.8,1.8,1.9v12.2c0,1-0.8,1.9-1.8,1.9s-1.8-0.8-1.8-1.9V9.5H3.7v4.6
	c0,1-0.8,1.9-1.8,1.9c-1,0-1.8-0.8-1.8-1.9V1.9C0,0.8,0.8,0,1.8,0c1,0,1.8,0.8,1.8,1.9V6H7.4z M19.2,14.7c-0.3,0.8-1,1.3-1.8,1.3
	c-1.1,0-1.9-0.8-1.9-1.9c0-0.2,0-0.5,0.2-0.8l4.2-11.7c0.4-1,1.2-1.6,2.3-1.6s1.9,0.6,2.3,1.6l4.2,11.7c0.1,0.3,0.2,0.5,0.2,0.8
	c0,1-0.8,1.9-1.9,1.9c0,0,0,0,0,0c-0.9,0-1.6-0.6-1.8-1.4l-0.7-2.1L22.1,6L19.2,14.7z M32.7,3.5c-1,0-1.7-0.8-1.7-1.8
	c0-1,0.8-1.8,1.7-1.8H41c1,0,1.7,0.8,1.7,1.8c0,1-0.8,1.8-1.7,1.8h-2.3v10.6c0,1-0.8,1.9-1.9,1.9c0,0,0,0,0,0c-1,0-1.9-0.9-1.9-1.9
	c0,0,0,0,0,0V3.5C35,3.5,32.7,3.5,32.7,3.5z M50.1,1.9v12.2c0,1-0.8,1.9-1.8,1.9s-1.8-0.8-1.8-1.9V1.9c0-1,0.8-1.9,1.8-1.9
	C49.3,0,50.1,0.8,50.1,1.9z M64.9,11.1c-0.4,0.8-1,1.2-1.9,1.2c-0.8,0-1.5-0.4-1.9-1.2l-1.5-2.7v5.7c0,1-0.8,1.9-1.8,1.9
	c-1,0-1.8-0.8-1.8-1.9V1.9c0-1,0.8-1.9,1.8-1.9c0.8,0,1.4,0.4,1.9,1.3L63,7.6l3.3-6.2C66.8,0.4,67.4,0,68.2,0c1,0,1.8,0.8,1.8,1.9
	v12.3c0,1-0.8,1.9-1.8,1.9c-1,0-1.8-0.8-1.8-1.9V8.4L64.9,11.1L64.9,11.1z M78.2,14.7c-0.3,0.8-1,1.3-1.8,1.3
	c-1.1,0-1.9-0.8-1.9-1.9c0-0.2,0-0.5,0.2-0.8l4.2-11.7C79.1,0.6,80,0,81.1,0c1,0,1.9,0.6,2.3,1.6l4.2,11.7c0.1,0.3,0.2,0.5,0.2,0.8
	c0,1-0.8,1.9-1.9,1.9c0,0,0,0,0,0c-0.9,0-1.6-0.6-1.8-1.4l-0.7-2.1L81.1,6L78.2,14.7L78.2,14.7z M95.9,10.4v3.7c0,1-0.8,1.9-1.9,1.9
	c-1,0-1.9-0.8-1.9-1.9c0,0,0,0,0,0V1.9c0-1,0.8-1.9,1.9-1.9s1.9,0.8,1.9,1.9v4.2l0.5-0.3c2-1.3,2.7-2.3,2.8-3.9
	c0.1-1,0.9-1.8,1.9-1.8c1,0,1.9,0.8,1.9,1.9v0.1c-0.1,2.4-1.1,4.2-3,5.7l3.6,5.4c0.2,0.3,0.3,0.7,0.3,1c0,1-0.8,1.9-1.9,1.9
	c-0.7,0-1.3-0.4-1.7-1l-3.4-5.3L95.9,10.4L95.9,10.4z M112,1.9v12.2c0,1-0.8,1.9-1.8,1.9c-1,0-1.8-0.8-1.8-1.9V1.9
	c0-1,0.8-1.9,1.8-1.9S112,0.8,112,1.9z"/>
</svg>
