<?xml version="1.0" encoding="UTF-8"?>
<svg width="32px" height="32px" viewBox="0 0 32 32" version="1.1" xmlns="http://www.w3.org/2000/svg" xmlns:xlink="http://www.w3.org/1999/xlink">
    <!-- Generator: Sketch 52.6 (67491) - http://www.bohemiancoding.com/sketch -->
    <title>fb</title>
    <desc>Created with Sketch.</desc>
    <g id="Page-1" stroke="none" stroke-width="1" fill="none" fill-rule="evenodd">
        <g id="hm_web_1-copy-5" transform="translate(-1202.000000, -1235.000000)">
            <g id="Group-11" transform="translate(-8.000000, 1012.000000)">
                <g id="Group-9">
                    <g id="fb" transform="translate(1210.000000, 223.000000)">
                        <circle id="Oval-3" fill="#FFFFFF" cx="17" cy="17" r="12"></circle>
                        <path d="M16,32 C7.17575758,32 0,24.8242424 0,16 C0,7.17575758 7.17575758,0 16,0 C24.8242424,0 32,7.17575758 32,16 C32,24.8242424 24.8242424,32 16,32 Z M17.2606061,24 L17.2606061,16.6787879 L19.7333333,16.6787879 L20.1212121,13.8181818 L17.3090909,13.8181818 L17.3090909,12.0242424 C17.3090909,11.2 17.5515152,10.6181818 18.7151515,10.6181818 L20.2181818,10.6181818 L20.2181818,8.0969697 C19.9757576,8.04848485 19.0545455,8 18.0363636,8 C15.8545455,8 14.4,9.30909091 14.4,11.7818182 L14.4,13.8666667 L11.9272727,13.8666667 L11.9272727,16.7272727 L14.4,16.7272727 L14.4,24.0484848 L17.2606061,24.0484848 L17.2606061,24 Z" id="icon_fb_hover" fill="#475994"></path>
                    </g>
                </g>
            </g>
        </g>
    </g>
</svg>