<?xml version="1.0" encoding="utf-8"?>
<!-- Generator: Adobe Illustrator 23.0.1, SVG Export Plug-In . SVG Version: 6.00 Build 0)  -->
<svg version="1.1" id="Слой_1" xmlns="http://www.w3.org/2000/svg" xmlns:xlink="http://www.w3.org/1999/xlink" x="0px" y="0px"
	 viewBox="0 0 3365 3365" style="enable-background:new 0 0 3365 3365;" xml:space="preserve">
<style type="text/css">
	.st0{clip-path:url(#SVGID_2_);fill:url(#SVGID_3_);}
	.st1{clip-path:url(#SVGID_2_);fill:url(#SVGID_4_);}
	.st2{clip-path:url(#SVGID_2_);fill:#FFFFFF;}
</style>
<g>
	<defs>
		<circle id="SVGID_1_" cx="1682.5" cy="1682.5" r="1681.9"/>
	</defs>
	<clipPath id="SVGID_2_">
		<use xlink:href="#SVGID_1_"  style="overflow:visible;"/>
	</clipPath>
	
		<radialGradient id="SVGID_3_" cx="217.8655" cy="74.9045" r="4271.9199" gradientTransform="matrix(1.0001 0 0 -1.0001 -0.1055 3366.1946)" gradientUnits="userSpaceOnUse">
		<stop  offset="9.000000e-02" style="stop-color:#FA8F21"/>
		<stop  offset="0.78" style="stop-color:#D82D7E"/>
	</radialGradient>
	<path class="st0" d="M853.3,3353.1c-200.1-9.1-308.8-42.4-381.1-70.6c-95.8-37.3-164.1-81.7-236-153.5
		c-71.9-71.8-116.4-140.1-153.5-235.9c-28.2-72.3-61.5-181-70.6-381.1C2,2295.6,0,2230.7,0,1682.7s2.2-612.9,11.9-829.4
		C21,653.2,54.5,544.6,82.5,472.1C119.8,376.3,164.3,308,236,236c71.8-71.8,140.1-116.4,236-153.5c72.3-28.2,181-61.5,381.1-70.6
		C1069.6,2,1134.6,0,1682.5,0c548,0,612.9,2.2,829.4,11.9c200.1,9.1,308.6,42.6,381.1,70.6c95.8,37.1,164.1,81.7,236,153.5
		c71.9,71.8,116.2,140.2,153.5,236c28.2,72.3,61.5,181,70.6,381.1c9.9,216.5,11.9,281.3,11.9,829.4c0,547.8-2,612.9-11.9,829.4
		c-9.1,200.1-42.6,308.8-70.6,381.1c-37.3,95.8-81.7,164.1-153.5,235.9c-71.8,71.8-140.2,116.2-236,153.5
		c-72.3,28.2-181,61.5-381.1,70.6c-216.3,9.9-281.3,11.9-829.4,11.9C1134.6,3365,1069.6,3363.1,853.3,3353.1"/>
	
		<radialGradient id="SVGID_4_" cx="2330.7156" cy="182.9446" r="3759.3301" gradientTransform="matrix(1.0001 0 0 -1.0001 -0.1055 3366.1946)" gradientUnits="userSpaceOnUse">
		<stop  offset="0.64" style="stop-color:#8C3AAA;stop-opacity:0"/>
		<stop  offset="1" style="stop-color:#8C3AAA"/>
	</radialGradient>
	<path class="st1" d="M853.3,3353.1c-200.1-9.1-308.8-42.4-381.1-70.6c-95.8-37.3-164.1-81.7-236-153.5
		c-71.9-71.8-116.4-140.1-153.5-235.9c-28.2-72.3-61.5-181-70.6-381.1C2,2295.6,0,2230.7,0,1682.7s2.2-612.9,11.9-829.4
		C21,653.2,54.5,544.6,82.5,472.1C119.8,376.3,164.3,308,236,236c71.8-71.8,140.1-116.4,236-153.5c72.3-28.2,181-61.5,381.1-70.6
		C1069.6,2,1134.6,0,1682.5,0c548,0,612.9,2.2,829.4,11.9c200.1,9.1,308.6,42.6,381.1,70.6c95.8,37.1,164.1,81.7,236,153.5
		c71.9,71.8,116.2,140.2,153.5,236c28.2,72.3,61.5,181,70.6,381.1c9.9,216.5,11.9,281.3,11.9,829.4c0,547.8-2,612.9-11.9,829.4
		c-9.1,200.1-42.6,308.8-70.6,381.1c-37.3,95.8-81.7,164.1-153.5,235.9c-71.8,71.8-140.2,116.2-236,153.5
		c-72.3,28.2-181,61.5-381.1,70.6c-216.3,9.9-281.3,11.9-829.4,11.9C1134.6,3365,1069.6,3363.1,853.3,3353.1"/>
	<path class="st2" d="M1352.1,1689.7c0-184.4,149.5-334,333.9-334s334,149.5,334,334s-149.5,334-334,334
		S1352.1,1874.1,1352.1,1689.7 M1171.6,1689.7c0,284.1,230.3,514.4,514.4,514.4s514.4-230.3,514.4-514.4s-230.3-514.4-514.4-514.4
		S1171.6,1405.5,1171.6,1689.7 M2100.6,1154.8c0,66.4,53.8,120.2,120.2,120.3c66.4,0,120.2-53.8,120.3-120.2
		c0-66.4-53.8-120.2-120.2-120.3h0C2154.4,1034.7,2100.6,1088.5,2100.6,1154.8 M1281.2,2505.2c-97.7-4.4-150.8-20.7-186-34.5
		c-46.8-18.2-80.1-39.9-115.2-74.9c-35.1-35-56.8-68.4-74.9-115.2c-13.8-35.3-30-88.4-34.5-186c-4.9-105.6-5.8-137.3-5.8-404.9
		s1-299.2,5.8-404.9c4.4-97.7,20.8-150.7,34.5-186c18.2-46.8,39.9-80.1,74.9-115.2c35-35.1,68.4-56.8,115.2-74.9
		c35.3-13.8,88.4-30,186-34.5c105.6-4.9,137.3-5.8,404.7-5.8s299.2,1,404.9,5.8c97.7,4.4,150.7,20.8,186,34.5
		c46.8,18.1,80.1,39.9,115.2,74.9c35.1,35,56.7,68.5,74.9,115.2c13.8,35.3,30,88.4,34.5,186c4.9,105.7,5.8,137.3,5.8,404.9
		s-1,299.2-5.8,404.9c-4.4,97.7-20.8,150.8-34.5,186c-18.2,46.8-39.9,80.1-74.9,115.2s-68.5,56.7-115.2,74.9
		c-35.3,13.8-88.4,30-186,34.5c-105.6,4.9-137.3,5.8-404.9,5.8S1386.8,2510,1281.2,2505.2 M1272.9,693.9
		c-106.7,4.9-179.5,21.8-243.2,46.5C963.9,766,908.1,800.3,852.3,856c-55.8,55.7-90,111.5-115.6,177.5
		c-24.8,63.7-41.7,136.5-46.5,243.2c-4.9,106.8-6.1,141-6.1,413s1.1,306.2,6.1,413c4.9,106.7,21.8,179.5,46.5,243.2
		c25.6,65.9,59.8,121.8,115.6,177.5c55.8,55.6,111.5,89.9,177.5,115.6c63.8,24.8,136.5,41.7,243.2,46.5c106.9,4.9,141,6.1,413,6.1
		s306.2-1.1,413-6.1c106.7-4.9,179.5-21.8,243.2-46.5c65.9-25.6,121.7-59.9,177.5-115.6c55.8-55.7,89.9-111.6,115.6-177.5
		c24.8-63.7,41.8-136.5,46.5-243.2c4.9-106.9,6-141,6-413s-1.1-306.2-6-413c-4.9-106.7-21.8-179.5-46.5-243.2
		c-25.6-65.9-59.9-121.7-115.6-177.5s-111.6-90-177.4-115.6c-63.8-24.8-136.6-41.8-243.2-46.5c-106.8-4.9-141-6.1-413-6.1
		S1379.9,689,1272.9,693.9"/>
</g>
</svg>
