<?xml version="1.0" encoding="utf-8"?>
<!-- Generator: Adobe Illustrator 23.0.1, SVG Export Plug-In . SVG Version: 6.00 Build 0)  -->
<svg version="1.1" id="Слой_1" xmlns="http://www.w3.org/2000/svg" xmlns:xlink="http://www.w3.org/1999/xlink" x="0px" y="0px"
	 viewBox="0 0 32 32" style="enable-background:new 0 0 32 32;" xml:space="preserve">
<style type="text/css">
	.st0{fill-rule:evenodd;clip-rule:evenodd;fill:#FFFFFF;}
	.st1{fill-rule:evenodd;clip-rule:evenodd;fill:#4C75A3;}
</style>
<circle class="st0" cx="16" cy="16" r="16"/>
<title>icon_vk_hover</title>
<desc>Created with Sketch.</desc>
<g id="Page-1">
	<g id="hm_web_1-copy-5" transform="translate(-1248.000000, -1235.000000)">
		<g id="Group-11" transform="translate(-8.000000, 1012.000000)">
			<g id="Group-9">
				<g id="vk" transform="translate(1256.000000, 223.000000)">
					<path id="icon_vk_hover" class="st1" d="M32,16c0,8.8-7.2,16-16,16S0,24.8,0,16S7.2,0,16,0S32,7.2,32,16z M23.2,21.7
						c0,0,1.2-0.1,0.6-1c0-0.1-0.3-0.7-1.7-1.9c-1.4-1.3-1.2-1.1,0.5-3.4c1-1.4,1.5-2.2,1.3-2.6c-0.1-0.3-0.9-0.3-0.9-0.3l-2.5,0
						c0,0-0.2,0-0.3,0.1c-0.1,0.1-0.2,0.3-0.2,0.3s-0.4,1.1-0.9,2c-1.1,1.9-1.6,2-1.8,1.9c-0.4-0.3-0.3-1.1-0.3-1.7
						c0-1.9,0.3-2.6-0.6-2.8c-0.3-0.1-0.5-0.1-1.2-0.1c-0.9,0-1.7,0-2.1,0.2c-0.3,0.1-0.5,0.5-0.4,0.5c0.2,0,0.6,0.1,0.8,0.4
						c0.3,0.4,0.3,1.2,0.3,1.2s0.1,2.2-0.4,2.5c-0.3,0.2-0.8-0.2-1.8-1.9C11,13.9,10.6,13,10.6,13s-0.1-0.2-0.2-0.3
						c-0.2-0.1-0.4-0.2-0.4-0.2l-2.4,0c0,0-0.4,0-0.5,0.2c-0.1,0.1,0,0.4,0,0.4s1.9,4.4,4,6.7c2,2.1,4.2,1.9,4.2,1.9h1
						c0,0,0.3,0,0.5-0.2c0.1-0.2,0.1-0.4,0.1-0.4s0-1.4,0.6-1.6c0.6-0.2,1.4,1.3,2.3,1.9c0.6,0.4,1.1,0.3,1.1,0.3L23.2,21.7z"/>
				</g>
			</g>
		</g>
	</g>
</g>
</svg>
