<?xml version="1.0" encoding="utf-8"?>
<!-- Generator: Adobe Illustrator 23.0.1, SVG Export Plug-In . SVG Version: 6.00 Build 0)  -->
<svg version="1.1" id="Слой_1" xmlns="http://www.w3.org/2000/svg" xmlns:xlink="http://www.w3.org/1999/xlink" x="0px" y="0px"
	 viewBox="0 0 32 32" style="enable-background:new 0 0 32 32;" xml:space="preserve">
<style type="text/css">
	.st0{fill:#E27E35;}
</style>
<g>
	<path class="st0" d="M17.8,20.3c1-0.2,1.9-0.6,2.8-1.2c0.7-0.4,0.9-1.3,0.4-1.9c-0.4-0.7-1.3-0.9-1.9-0.4c-2,1.2-4.5,1.2-6.5,0
		c-0.7-0.4-1.5-0.2-1.9,0.4c-0.4,0.7-0.2,1.5,0.4,1.9c0.9,0.5,1.8,0.9,2.8,1.2L11.2,23c-0.6,0.6-0.6,1.4,0,2c0.3,0.3,0.6,0.4,1,0.4
		c0.4,0,0.7-0.1,1-0.4l2.6-2.6l2.6,2.6c0.6,0.6,1.4,0.6,2,0c0.6-0.6,0.6-1.4,0-2L17.8,20.3 M15.9,9.5c1.1,0,2,0.9,2,2
		c0,1.1-0.9,2-2,2c-1.1,0-2-0.9-2-2C13.9,10.4,14.8,9.5,15.9,9.5L15.9,9.5z M15.9,16.3c2.7,0,4.8-2.2,4.8-4.8c0-2.7-2.2-4.8-4.8-4.8
		c-2.7,0-4.8,2.2-4.8,4.8S13.2,16.3,15.9,16.3z"/>
</g>
<g>
	<path class="st0" d="M16,3c7.2,0,13,5.8,13,13s-5.8,13-13,13S3,23.2,3,16S8.8,3,16,3 M16,0C7.2,0,0,7.2,0,16s7.2,16,16,16
		s16-7.2,16-16S24.8,0,16,0L16,0z"/>
</g>
</svg>
